<svg xmlns="http://www.w3.org/2000/svg" viewBox="0 0 3893 5840">
  <g class="g_to_interact" id="WhiteSneakers" style="isolation: isolate">
    <path d="M3114,3146c-.33-2-.67-4-1-6-1.91-1.12-3.75-3.33-6-4h-15c-2.4-.78-5.62-4.12-8-5l-14-1c-3.33-.84-8.66-3.18-12-4-4.63-1.14-10.72,1.09-14-1-7.44-2.63-15.05-13.3-20-19-16.11.43-23.57-.31-38-4h-10c-2.72-1-5.28-5-8-6l-10-1c-6-3.52-9.26-12.29-16-15-5.95-2.39-13.31,1.57-18-1-3.28-1.8-6.06-5.89-9-8-3.83-2.74-8.78-3.71-12-7-3.59-3.66-5.42-9.37-11-11-6.26-1.83-6.42,4.41-12,3-2.35-.59-5.71-4.14-8-5l-14-1c-10.3-3.42-20.46-17.76-31-23-4.53-2.25-11.52.91-17-1-3.37-1.18-6.51-5.67-10-7l-16-1c-2.22-.78-3.39-3.66-5-5-3.38-2.82-8.7-3.09-12-6-4.53-4-7.68-10.91-13-14-5-2.88-13.84,1.17-20-1-5.05-1.78-8.26-8.64-13-11l-13-1c-7.8-2.57-14.26-11.44-22-14h-14c-4.7-1.64-7.56-7.44-13-9-8.35-2.4-16.3,2.85-22,1-3-1-5.24-5.62-8-7l-24-2c-2.41-3-7.22-4.49-9-8-.33-3.33-.67-6.67-1-10-1.54-4.26-10.7-15.32-15-17-6-2.34-22.65-3.59-29-4-6.64-.43-16,1.5-21-1l-22-22c-4.16-2.56-11.54.59-17-1-2.7-.78-5.74-3.93-8-5l-11-2c-5.7-3-13.58-8.78-20-11h-6c-19.24-6.74-31.82-22.39-49-31-5-2.5-9.25-.93-15-3s-9.44-7.93-18-10l-14,1c-3.05-1.23-5.91-6.45-9-8l-13-2c-2.88-1.26-6.81-4.82-10-6l-12-2c-3.33-1.64-7.37-6.26-11-8l-11-2c-3-1.13-6.39-4.66-9-6-4.2-2.16-9.15-1.59-13-4l-6-6-16-6c-2.59-1.73-4.79-5.82-8-7l-18-3c-2.33-1.15-5.15-4.93-8-6-7.09-2.67-13.14-1.48-20-4-3.22-1.18-10-5.28-12-8-1.45-2-1.9-5.9-4-7h-8c-2.73-1-5.28-5-8-6h-6c-5-1.75-10.35-6.68-15-9-5.76-2.87-10.76-2.58-17-5-8.88-3.45-18.46-10.56-27-15-7.06-3.67-16.06-3.79-23-8-4.13-2.51-9.06-7.39-14-9h-10l-14-10h-8c-8-2.68-14.75-10.14-22-13-5.7-2.25-10.41-1.53-16-4-11.08-4.9-24.49-10.85-35-16l-9-1c-2.73-1-5.27-5-8-6h-6c-6.86-1.93-14.63-4.12-22-7-7-2.74-16.58-8.47-24-11l-10-1c-2.91-1.12-5.53-4.5-8-6-4.25-2.58-9-2-14-4-2.37-.92-5.59-4.23-8-5-5.94-1.91-12.86,1-18-1-7.55-2.88-15.92-10.21-24-13-6.77-2.34-13.81.06-22-2-2.72-.68-8.76-1.41-12-3-1.75-.86-3.77-4.26-6-5h-10c-1.66-.54-4.35-3.44-6-4l-10-1c-3.34-1.28-8.74-5.63-10-9-1.11-3,.57-5.81-1-8-2.62-3.64-8.92-2.65-13-5-1.8-1-3.91-4.28-6-5h-10c-2.69-.72-5.61-3.19-8-4l-20-4c-4.47-1.7-9.46-6.54-14-8h-16c-1.64-.53-4.36-3.47-6-4-8.78-2.83-19.75-.68-28-4-4.12-1.66-7.4-6.62-12-8-13.1-3.93-25.65-2.22-38-7-5.57-2.15-8.67-9.13-14-11h-10c-2.69-.71-5.61-3.19-8-4-6.75-2.3-14.16-1.53-20-5-7-4.18-13.69-12.11-21-16l-9-3-10-10c-12.31-5.06-29.07,4.35-46,0-3.8-1-10.4-2.83-14-5-4-2.39-5.34-9.32-10-11h-10c-5.76-1.44-14.25-2.42-20-5-10.26-4.6-18.91-13.38-30-17-7-2.27-12.34.08-18-3-3.32-1.8-3.78-8-7-10-5.67-3.5-13.91-1.3-21-4-6-2.27-7.3-9-12-12l-20-2c-3.87-5.69-10.79-14.89-18-17h-14c-3.67-1.29-6.26-7-10-8-2.1-.55-4.77,2.27-8,1-.59-.23-12.6-7-14-8-3.11-2.17-3.71-8.14-7-10l-13-1c-8-2.62-9-8.6-14-13l-4-1c-.33-3-.67-6-1-9l-14-14c-4.85-2.68-8.62-.9-15-3-1.66-.55-4.35-3.44-6-4h-6c-4.38-1.23-8.3-4.6-12-6l-8-1c-8.1-3.13-13.46-12.27-21-16-8.32-4.12-21.31.55-29-4-5.66-3.35-4.79-11.27-9-16-1.81-2-5.1-3-7-5-8.8,0-10.41,3.22-18,4-14.7-14.37-36.13-19.55-54-31-8.24-5.28-17.75-12.73-26-18-7.85-5-16.3-7-24-12l-8-8c-5.18-3.12-11.14-2.89-16-6-3.92-2.51-6.8-7.68-11-10-7.21-4-14.63-5.42-21-10l-14-14-10-2c-4.42-2.27-7.32-8.78-11-12s-10.41-2.81-14-6-4.67-8.71-8-12c-3.68-3.63-10.57-3-15-6l-8-10c-5.81-4-12.33-1.68-15-9-.89-1.47-.17-3.67-1-6-3.37-9.51-5.81-12-14-17-1.48-.9-3-4.63-4-3-3.13,3.9-3.93,12.11-3,17h-1v-1c-10.48-9.74-25.75-18.39-39-25l-9-2c-3.77-2.46-5.76-8.81-9-12-4.82-4.73-12.86-5.52-18-10-1.82-1.58-2.83-4.72-5-6l-10-2-7-8c-3.74-2.19-7.53-1.75-11-4-10.07-6.53-18.31-14.32-27-22-4.31-3.81-9.41-3.07-15-6-3.61-1.89-6-7.36-9-10s-7.43-1.85-11-4c-3.77-2.27-5.79-7.17-9-10s-8.61-3.19-12-6c-1-.82-1.78-3.37-3-4l-8-1c-5.1-2.54-15.89-17.2-22-21l-10-2c-1.7-1.08-1.68-3.47-3-5-2-2.27-5.75-3-8-5-.92-.83-1.07-3.18-2-4-4.68-4.13-11.6-5.63-16-10-5-4.93-8.8-11.32-14-16-4.32-3.89-10.1-5.75-14-10s-6.1-9.76-10-14c-2.16-2.35-5.84-3.64-8-6-12.7-13.88-14.29-31.49-37-36-9.43-21.85-20.09-34.3-50-36-4.47-6.79-12.81-12.1-17-19-3.82-6.29-6-11.2-11-16-.4-24.88,9.4-33.79,17-49q1-5.51,2-11c4.92-11.18,13.39-22.77,18-34v-4c2.38-4.71,8.07-9.56,11-14,3-4.6,3.92-9.52,7-14s8.29-7.29,12-11c6.91-6.91,12.68-15.55,20-22,6-5.25,14.19-7.74,21-12,5.63-3.53,11.23-9.5,18-12,11.14-4.12,27.6,2.55,40-1,3.93-1.13,7.72-4.89,12-6h17c14.4,0,26.06.08,37-4,5.31-2,9.31-8.3,14-10h8c2.69-.91,7.32-4.12,10-6,5.44-3.82,3.35-10.83,12-12,4.26,4.38,9.77,7.59,14,12,11-.15,15.49-5.83,24-8,6.88-1.76,9.29,5.23,16,4,5.33-1,11.91-4.75,16-6,5.92-1.81,9.16,2.31,12,3,5.62,1.37,6.3-4,12-3,6.27,1.11,13.51,4.4,20,5,2-2.67,3.56-3.64,8-4,7,6.69,23.24,1.32,34,1v-6h4c.33,2.33.67,4.67,1,7,4.3,3.33,16.82,12.32,27,9,2.23-.73,2.53-2.32,6-3l1,1-1,4c13.88,0,12.59,8.7,24,10a33.79,33.79,0,0,0,1,8c3.22,1.47,6.31,4.9,9,6h12c4.6.07,7.09,1.27,10,2h22c19.92,5,44.26,4.39,64,10,35.19,10,74.19,20.6,106,35,13.55,6.13,32.87,20.29,50,21,1.75-1.49,4.66-2.13,6-4,2.16-3,2.76-7.28,6-9,8-4.26,16.84-2.74,26-6,19.69-7,44.35-11.51,66-17h20c6-1.47,18,.3,26-2,2.21-.63,4.79-3.37,7-4,6.25-1.78,11.84,1.55,16,2,16,1.73,35.35-.27,47-3,2.26-3.93,4.29-12.27,9-14,5.66-3.76,12.44.49,19-1,14.9-3.4,31.49-4.08,52-4,3.6,5.61,11.82,8.34,15,14,.33,2.33.67,4.67,1,7,3.19,9.85,8.88,9.27,22,9,5.13,3.89,19.52,2,28,2,17.39.1,41.42,4.65,60,1,2.32-4.12,7-8,9-12,4.68-9.46,4.7-21.66,14-26,6.3-3.82,19,1.11,27-1,7.18-1.88,42.21-7.26,52-4,1.58.52,3.43,3.47,5,4h25c11.57-3.13,24.13-10.85,35-14,7.25-2.1,12.16.6,17-3l10-14v-4c1.73-2.92,7.12-2.13,10-4l15-15c6.44-2.93,14.67.15,23-2,2.9-.75,10.45-.88,14-2,1.64-.52,4.36-3.48,6-4,2.54-.8,29.73,1.2,32,2,3.92,1.39,6.47,6.62,11,8,9.52,2.9,20-.89,31,2,5.88,1.55,12.26,5,18,6,5.07-6.2,1.69-8.13,5-14,3-5.24,13.42-17,18-21s22.57-8.57,33-5c3.15,1.08,7.13,5,11,6,10.25,2.79,19.55-.49,28,3,3.21,5.76,8.55,11.58,11,18,1.46,3.82.26,9.61,3,12h2c2.2,1.4,5.69.1,9,1,2.44.66,6.55,3.38,9,4l20-2c6.4,0,12,3.48,17,2,9.06-2.66,21.36-16,30-21,7.11-4.12,17.44-4.4,23-10,3.7-3.73,1.37-9.82,4-15,1.39-2.75,6.24-3.66,8-6,4.11-5.47,1.8-10.33,9-13,4.55-2.84,14.81-.06,20-2,8-3,25.83-26.09,42-16,4.78,1.67,19.18,16.42,21,21,2.22,5.58,2.05,9.51,5,14,3.17,4.83,7.13,11.34,11,16,1.42,1.71,4.69,2.11,6,4,6.25,9,13.6,22.72,27,24,4.57-4.74,10.34-8.34,15-13s8.26-10.43,13-15c-.5-5.69-2.9-7.7-4-12v-12c-1.5-4.44-9.9-10-5-18,2.52-7.87,11.33-17.36,19-20,3.06-1.06,5.62.19,8-1,2.54-1.27,5.08-5.33,8-6,3.92-.89,4.07,2.86,8,2,4.29-.94,7.44-4.53,14-5v-6h6c-.09-3.09-.14-6.33,1-8,2-6,14-20,19-23,3.17-1.92,6.38-1.68,9-4,3.19-2.83,5.22-7.79,9-10,6.64-3.89,15.26-2.94,21-8,8-7,10.81-18.12,18-26,20.26-22.2,42.14-44.55,77-52a25,25,0,0,1,4-5q-1-7-2-14c-2.72,0-4.6,0-6-1-4.77-1.64-4.53-5.56-8-8-6.67-4.68-25.26-13.77-20-29,.72-2.09,3.95-4.2,5-6,.67-2.67,1.33-5.33,2-8,4.08-6.3,20.52-9.47,29-11a25,25,0,0,1,4-5v-8c12,.13,12.78-4.94,22-6,3.21,2.3,8.07,2.42,11,5,5.73,5,8.43,11.63,13,18,6,8.33,15,15.74,21,24,3.7,5.08,5.83,11.27,10,16,5.58,6.32,15,10.29,20,17,1.07,1.44.76,3.78,2,5,5.2,5.13,13.06,4.28,21,7,18.35,6.28,35.86,15.32,48,28h12c3.82-1.35,8.17-6,12-8,10.62-5.53,28.24-5.94,32-18,3.21-10.28-7.15-18.12-10-24-.67-3.33-1.33-6.67-2-10-1.27-3.11-5.62-5.36-7-8-1.84-3.52-.5-6.28-2-10-.71-1.76-17.69-20.42-19-21h-10c-1.33-.84-4,0-6-1-3.85-1.92-5.46-8.38-10-10s-10.43,1.09-14-1c-4.81-2.81-7.95-9.2-13-12-3.62-2-10.16-6-13-7h-8c-2.42-.81-5.63-4-8-5h-4c-2.94-1.54-5.83-6.42-9-8-5-2.5-13,1.11-19-1-3.77-1.33-6.25-6.6-10-8l-10-1c-5.93-2.27-10.15-8.55-15-12-3.52-2.5-6.71-1.76-11-4-8.33-4.36-16.23-13.8-26-17h-10c-6.29-1.54-19.71-2.44-26-4h-20c-8.68-2.08-30.89-7.82-44-4-2.37.69-5.35,3.29-8,4h-32c-2.09.73-4.19,4-6,5-2.34,1.33-4.94-.07-8,1-1.66.58-4.34,3.46-6,4h-16c-4.39,1.3-9.51,5.36-14,7-8.32,3-20.39,5-28,7h-10c-4.91,1.62-13.09,6.4-18,8-7.56,2.47-17.36-1.5-24,1-3.14,1.18-6.88,4.78-10,6-5.56,2.18-9.81.86-16,3-1.67.58-4.33,3.42-6,4l-28,3c-9.31,3.42-20.95,9.83-30,13h-9c-3.82,1.36-7.17,6.65-11,8h-11c-7,2-15.59,6-23,8-6.6,1.81-11.83-.28-17,2-4.81,2.12-11.58,6.71-16,9-2.71,1.4-5.58.46-8,2l-5,5c-4.08,1.88-8,1.06-12,3-3.39,1.63-8.67,5.8-12,7h-7c-1.6.58-3.41,3.38-5,4h-5c-3.81,1.49-7.15,6.63-11,8h-9c-2.69,1-4.32,5-7,6l-10,1c-3.93,2-7.73,7.45-12,9-6.8,2.46-13.87-.06-20,3-8.37,4.17-21.12,11.94-30,15h-17c-1.58.54-3.42,3.46-5,4h-41c-14.2,3.82-28.18,6.75-42,12-3.19,1.21-7.1,4.87-11,6-14.83,4.31-29.87,6.1-44,10h-9c-4.08,1.2-10.3,4.72-15,6h-11c-5.15,1.38-12.7,4.74-17,6h-21c-13.09,3.47-35,2.25-49,6h-23c-3.27.87-11.7,3.38-15,4-2.86.53-4.41-1.59-6-2-5-1.29-9.35,1.29-12,2-9.74,2.61-27.22-.19-34-2-7.65-2-15.35,1.58-19,3l-40,2h-30c-6.49,1.46-13.16,3.58-19,5-11,2.67-27.92.2-33,1-6.1,1-16.3-3.54-22,0-4.65,1.69-4.47,5.26-9,7-3.81-3.09-9.28-4.92-12-9-4.53-6.8-3.82-15.11-1-22,12-29.18,65.61-10.14,94-16h19c6.42-1.48,24.8-6.89,32-5,6,1.57,22.79,4.85,34,2,6.7-1.7,21-1.89,28-5,5.29-2.35,10-8.93,15-11,10.09-4.18,34.64,5.63,49,2,36.76-9.29,83.39-8.48,118-20,9.42-3.14,19.68,1.4,30-2,1.65-.54,4.35-3.46,6-4h10c3.67-1.23,7.65-4.85,12-6,10.21-2.7,16.65-1,25-5,3.37-1.63,7.34-5.72,11-7,7.5-2.63,12.55-1.77,19-5,4.62-2.31,10-7.33,15-9h8c6.43-2.32,12.48-9.54,18-13,6.6-4.14,15.65-4,22-8,4-2.49,7.8-7.91,12-10l8-1c2.2-.86,4.23-4.1,6-5l9-2c11.75-6.21,23.73-15.54,35-22l24-8c6-3.59,10.8-10.19,18-13,28.46-11.09,59.54-20.82,88-31l14-2c12.87-4.62,29.31-8.6,42-14l16-1c2.23-.75,4.25-4.15,6-5,5-2.42,12,.75,18-1,17.89-5.23,41.29-11.14,60-16h26c25-6.24,54.51-4.84,86-6,37-1.36,69.42-8,108-8h40c6.67,1.7,15.58,4.32,22,6,10.59,2.77,20.95.52,30,5,2.34,1.16,5.15,4.91,8,6,5.48,2.1,10.6.74,16,3,5.65,2.36,9.39,10,15,13,5.44,3,13.16,5.37,19,7l10,1c1.75.85,3.78,4.24,6,5h8c6.11,2,14.07,6,22,8h12c3.76,1.33,6.24,6.67,10,8h14c2.62.85,6.33,2.43,10,4l8,8,8,1c5,2.72,5.78,12.23,9,17l6,5c2.33,4.15,1.19,8.67,4,12,7.76,9.21,19.8,15.5,27,25,5.32,7,10,13.78,16,20a33.79,33.79,0,0,0,8-1c1.65-3.24,4.71-5.79,6-9,1.55-3.83.64-6.3,3-9,3.94-4.5,10-7.53,14-12,9.47-10.62,16.58-22.37,29-30,9.22-5.66,23.53-7.76,32-14,4.14-3,3.63-10.16,7-14,3.59-4.1,9.85-6.48,13-11,4.24-6.09,7.58-12.23,13-17,3.49-3.07,9.16-3.27,13-6,6.26-4.45,11-12.08,18-16,3.16-1.77,7.72.08,12-1s9.61-3.91,14-5h14c2.89-.93,5.69-4.88,8-6,5.39-2.62,29-5.29,38-3,29.61,7.56,40.23,38.22,59,57,15.17,15.18,31.92,29.83,48,44,4.76,4.19,11.38,5.76,16,10,3.73,3.43,6.22,8.64,10,12,5,4.48,12.91,5.51,18,10,4.49,4,7.53,10,12,14,5.81,5.18,12.54,8.55,18,14,2.93,2.93,4.89,7.29,8,10,4.24,3.7,8.44.84,15,3,6.84,2.25,13.6,9.74,20,12l12,1c5.72,2.88,13.93,11.18,20,15l14,5c6.21,4,12.37,10.51,19,14,3.66,1.92,7.13,1.49,10,4,5.93,5.17,12.93,12.23,20,16,2.56,1.37,4.72.55,7,2,3.74,2.38,5.76,7.13,9,10,4,3.53,10.09,4.43,14,8,4.43,4,7.5,10,12,14,5.82,5.13,14.33,6.81,20,12,3,2.78,4.92,7.26,8,10,6.52,5.81,13.87,9.88,20,16,2.27,2.27,3.6,5.89,6,8,3.28,2.89,8.72,3.11,12,6,2.8,2.47,5.21,7.52,8,10,3.19,2.84,7.41,3.53,11,6,4.35,3,7.09,8.56,11,12,3.27,2.88,8.35,3.57,12,6,5.58,3.72,9.11,9.69,14,14,3.55,3.13,9,3.29,13,6,4.37,2.94,7.1,8.57,11,12,4.68,4.12,13.32,3.89,18,8,1.65,1.45,2.36,4.55,4,6,4.6,4,11.71,4.63,17,8,3.48,2.22,6.53,6.74,10,9,3.18,2.07,6.31,1,10,3,1.9,1,3.36,4.61,5,6,3.29,2.78,6.78,1.77,11,4,6,3.17,10,11.58,15,16,3.28,2.89,8.72,3.11,12,6,2.36,2.08,3.64,5.93,6,8,3.62,3.17,10.38,2.83,14,6,2.5,2.19,5.5,7.79,8,10,3.55,3.13,9,3.3,13,6,3.44,2.31,5.91,7.27,10,9l6,1c2.16,1.3,3.18,4.4,5,6,3.61,3.17,8.79,3.32,13,6,2.95,1.88,4.45,5.77,7,8,3.63,3.17,10.36,2.84,14,6,.9.78,1.1,3.22,2,4,3.3,2.88,8.7,3.11,12,6,.91.79,1.1,3.21,2,4,2.63,2.31,5.83,2.08,9,4,2.78,1.69,4.59,5.87,7,8,2.95,2.61,7.12,3.36,10,6,10.88,10,28.15,29.8,33,45v32c-1,3.79-5.19,8.7-4,14,1.41,6.3,6.23,14.79,8,22,1.57,6.41.68,47.6-1,52-1.33,3.49-5.84,6.63-7,10v16c-1.31,5.07-2.74,12.07-5,18-2.42,6.37-8.9,14.07-11,20v8c-2.25,6.69-8,14.34-11,21-2.79,6.13-1.08,13.2-4,19-2.27,4.5-7.57,10.27-9,16s1.45,10.23-1,16c-2.63,6.21-8.87,12.88-12,19-2,3.92,1.07,10.45-1,15l-5,4c-1.42,2.3.07,5-1,8-.59,1.69-3.37,4.32-4,6-3.36,8.92-4,18.77-4,30v16c-5.59,17.3-7.53,39-14,56a445.4,445.4,0,0,1-19,42c-4.21,8.32-13.21,13.31-14,25,3.83,2.85,9.38,9.12,10,15,1.63,2.55,2.4,15.76,1,20-.55,1.65-3.45,4.35-4,6v22c-.54,1.65-3.45,4.35-4,6v14c-1.69,6.67-4.32,15.58-6,22v42a150.12,150.12,0,0,0-4,32v24c-3.18,12.5-6.48,28.43-10,42v20c-1.22,4.86-2.73,15.15-4,20v10c-.86,3.34-3.13,8.66-4,12v14c-12.59,49.9-15.25,107-28,156v16c-2.7,10.62-5.27,25.67-8,36v10c-6.17,18.59-12.46,40.19-19,58-3.22,8.78-2.25,19.48-6,28-3.51,8-9.84,17.82-13,26-4.28,11.08-4.25,21.37-9,32-2.08,4.64-6.17,11.12-8,16q-1,6-2,12c-3,6.72-8.53,14.61-12,21-2.78,5.12-3.09,10-6,15-3.3,5.71-9.38,11.58-12,18-1.87,4.6-1.16,7.18-3,12-.58,1.52-3.68,4.45-4,6-1.12,5.42,6.05,9.71,4,18-.59,2.36-1.54,9.43-3,12-1,1.84-4.2,3.9-5,6v6c-2.86,7.64-10.81,15.35-15,22-1.84,2.92-1.8,6.5-4,9-1.45,1.65-4.55,2.36-6,4-4.66,5.27-6.28,12.87-10,19s-11.68,11-16,17c-22.75,31.55-41.44,64.68-62,99-2,3.37-6.78,6.65-9,10-4.91,7.4-7.12,16.59-13,23-2.55,2.78-5.07,4.42-10,5l-1-1v9c-.8,1-.35.27-1,2-6.62,4.19-13.75,9.77-22,12h-14c-18,0-34.79-.38-49-4h-8c-6.38-1.65-11.13-6.29-16-8-8.63-3-16.42.41-26-2-2.06-.52-7.88-1.67-10-3l-4-5h-12c-4.57-1.66-6.87-8-12-10-5.36-2.05-10.88-.49-16-3-4-2-7.74-6.61-13-8l-15,1c-4-1.05-6.56-4.87-10-6Z"  fill-rule="evenodd"/>
    <path d="M723,2086c.8,1,.35.27,1,2h-1Z"  fill-rule="evenodd"/>
  </g>
  <g class="g_to_interact" id="Snoerebaand" style="isolation: isolate">
   <path d="M2761,1380c-.07-2.53-.12-3.72-1-5-1.62-4.72-5.52-5.52-8-9-3.65-5.13-4.77-10.18-8-16-1.78-3.21-6.3-5.75-8-9-1.41-2.7-.45-5.58-2-8-2.71-4.23-8.07-8-11-12-6.88-9.48-11.64-18.86-18-29l-6-6q-2-6-4-12c-4-5.85-13.86-7.81-18-14-2.35-3.52-1.21-7.59-3-12-1.26-3.11-5.63-5.37-7-8-1.83-3.53-.51-6.27-2-10-.71-1.76-17.67-20.41-19-21h-10c-1.32-.84-4.05,0-6-1-3.85-1.92-5.47-8.36-10-10s-10.43,1.09-14-1c-4.81-2.82-7.95-9.19-13-12-3.64-2-10.12-6-13-7h-8c-2.42-.81-5.63-4-8-5h-4c-2.94-1.54-5.84-6.41-9-8-5-2.51-13,1.12-19-1-3.77-1.33-6.25-6.59-10-8l-10-1c-5.93-2.27-10.15-8.55-15-12-3.52-2.5-6.71-1.76-11-4-8.34-4.36-16.24-13.74-26-17h-10c-6.3-1.55-19.71-2.38-26-4h-20c-8.63-2.09-30.95-7.83-44-4-2.37.69-5.35,3.28-8,4h-32c-2.09.74-4.19,4-6,5-2.34,1.33-4.94-.07-8,1-1.66.58-4.33,3.44-6,4h-16c-2.69.8-5.74,4-8,5-8.9,4.06-21.34,4.88-30,8l-14,1c-4.92,1.63-13.09,6.36-18,8-7.52,2.51-17.38-1.5-24,1-3.14,1.18-6.88,4.77-10,6-5.55,2.19-9.81.86-16,3-1.67.58-4.33,3.41-6,4l-28,3c-9.43,3.46-20.74,9.84-30,13h-8c-4.21,1.45-7.64,6.52-12,8h-10c-7.53,2-16.08,5.91-24,8l-14,1c-11.7,4.41-23.06,13.6-34,18-13,5.23-24.78,7.7-38,13-4.18,1.67-7.61,6.49-12,8h-8c-2.73,1-5.28,5-8,6l-9,1c-4.3,2.14-8.19,7.3-13,9l-19,3c-9.32,4.58-20.9,11.63-31,15h-16c-1.65.54-4.35,3.45-6,4h-40c-18,4.54-34.52,11.1-50,17l-10,1c-3.81,1-9,3.71-12,5l-14,1c-3.35.85-8.66,3.11-12,4h-8c-4.42,1.31-10.87,4.65-16,6-7.63,2-13-.13-20,2-2.38.73-5.34,3.28-8,4h-20c-13.47,3.34-35.64,2.29-50,6h-82c-1.38.54-4,3.61-6,4-9.33,1.81-30.38-3.27-40-2-3.9.51-9.13,4-12,5-6.14,2.11-29,1.15-30,1-5.21-.82-29.39,3.6-34,5-2.77.84-6.77-.72-8-1l-26,1c-6.76,1.48-20.7,3.53-24,2-4.23-1.28-6.58-3.73-7-9-7.47-10,6.15-21.25,11-26,12.18.14,26.83.38,36-2,10.66-2.76,25.51.2,34-2,8.31-2.16,19.77-.38,26-2h30c3.34-.85,8.66-3.13,12-4,14.1-3.69,33.83,1.6,48-2,11.49-2.92,23.49-8.5,34-12h34c24.48-6.16,56.58-7.76,80-14h16c3.38-.85,11.64-.56,16-2,1.66-.55,4.35-3.44,6-4,9.41-3.19,19.67,1.4,30-2,1.65-.55,4.35-3.44,6-4h10c3.67-1.22,7.66-4.83,12-6,10.19-2.75,16.65-1,25-5,3.38-1.63,7.34-5.7,11-7,7.48-2.66,12.55-1.78,19-5,4.63-2.31,10-7.3,15-9h8c7.94-2.86,14.25-12,22-15,7-2.77,12.28-2.43,18-6,4-2.49,7.8-7.89,12-10l8-1c7.21-2.81,15.57-9.24,22-13l10-3c6.88-4.4,14.38-11.56,22-15,6.57-3,11.64-2.33,18-5,7-2.94,12.27-11,20-14,23.81-9.36,51.81-16,74-27l12-2c11.41-4.1,23.86-5.62,36-10,37.14-13.39,82.65-20.57,122-31h26a209.82,209.82,0,0,1,49-6h41c9.08-2.23,24.67.77,36-2,22.71-5.55,48.1-6,76-6h32c6.68,1.69,15.58,4.28,22,6,10.59,2.83,20.93.52,30,5,2.34,1.15,5.16,4.9,8,6,5.47,2.12,10.59.75,16,3,5.65,2.35,9.4,10,15,13,5.45,3,13.15,5.34,19,7l10,1c1.75.85,3.78,4.23,6,5h8c2.41.8,5.61,4.09,8,5,4.19,1.59,10.55,2.11,14,3h12c3.77,1.32,6.24,6.65,10,8h14c2.62.85,6.32,2.44,10,4l8,8,8,1c5,2.69,5.79,12.24,9,17l6,5c2.33,4.14,1.19,8.67,4,12,9.79,11.61,26,20,34,33,1.37,2.23.65,4,2,6l6,6q-.49,6-1,12c1.1,3.28,6.5,10.17,9,13,.82.93,3.16,1.08,4,2,2.66,2.91,3.43,7,6,10h2c2.84,3.36,3.1,8.69,6,12,4.5,5.14,12.46,11.21,16,17,1.35,2.2.5,4.14,2,6,1.32,1.63,4.47,2.48,6,4,6.11,6.07,13.52,14.67,18,22,2.37,3.88,1.8,8.82,4,13,4.36,8.26,15.19,11.87,20,20,2.76,4.67,2.16,13.19,5,21,1.68,4.62,6.47,8.28,8,14v18c1.12,3.89,4.15,6.18,5,11-9.57,8-14,42.61-27,44-4.88,4.64-22.48,3.9-28,0-13.7-4.63-9.31-12.12-14-25l-16-21c-3.52-2.57-7.86-3.14-11-6C2771.69,1388.16,2770.64,1380.69,2761,1380Z"  fill-rule="evenodd"/>
    <path d="M2696,1528c-22.84.38-21.74,17.06-36,19-1.75,1.26-4.11,1.5-5,1-6.51-2.75-10.54-12.94-14-19-4.65-8.13-13.13-15.32-18-23-3.17-5-2.67-9.82-5-16-2.72-7.2-7.47-12.69-8-23l-5-1c-3-5.21-4.81-11.17-8-17-1.59-2.91-5.68-5.81-7-9-2.89-7-3.24-13.89-7-20-6.66-10.81-14.42-21.36-22-32-4.59-6.44-12.28-11.68-17-18-2.09-2.8-3.14-7.1-6-9l-7-2-17-18c-.67-3.33-1.33-6.67-2-10l-12-11c-7.57-10.33-30.31-40.58-43-43-.33-2-.67-4-1-6-13-2.68-27.49-20.62-36-29,.08-7.75,9.62-26.76,14-29,9.43-4.82,22.86-2,27-13,1-1.42,1-3.27,1-6,12,.13,12.78-4.94,22-6,3.18,2.35,8.07,2.42,11,5,5.74,5,8.42,11.64,13,18,7.07,9.83,15.67,18.9,23,29,5.17,7.12,14,14.1,18,22,5.73,11.31,9,21.29,16,31,5.7,7.93,13.62,14.75,20,22,2.89,3.29,3.11,8.71,6,12,2.75,3.12,7.81,5.39,10,9,1.92,3.16,1.68,6.38,4,9,4,4.55,10.81,7.69,14,13,.67,3,1.33,6,2,9,3,6,8.73,14.34,11,21,.33,3.33.67,6.67,1,10,.89,2.38,4.22,5.6,5,8,2.65,8.21-.26,13.58,4,20l6,6c3.11,5,3.27,12.57,7,17,1.45,1.72,4.83,3.07,6,5,1.92,3.17,1.68,6.38,4,9C2683.5,1483.9,2695.57,1487.57,2696,1528Z"  fill-rule="evenodd"/>
    <path d="M2571,1276c10.05,1.49,11.3,9.75,21,11,1.92-1.45,4.53-1.78,6-1,4.08,2.7,5.9,10.11,10,12h10c4.73,1.67,7.26,8.36,12,10,7.67,2.65,14-1.39,19,3,7.53,6.56,11.08,19.1,20,24s19.29,5.63,29,10c17.58,7.9,33.54,26.32,38,47-10.77.22-29.31,9.32-35,15-5,5-2.73,9.4-13,10-1.92-2.58-4.78-3.59-6-7-.31-.87,1.3-3.46,0-6l-8-8c-.33-3.33-.67-6.67-1-10-3.78-6.09-11.7-11.17-16-17-1.35-1.83-4.09-11.23-5-12-2.75-2.31-8.07-2.1-11-4-5.16-3.35-9.08-9.84-14-13l-9-1c-2.45-1.28-3.05-6.08-5-8s-5.62-2.26-8-4c-8.78-6.43-13.68-18.92-20-28-4.6-6.62-16.54-11.69-17-21A10.92,10.92,0,0,0,2571,1276Z"  fill-rule="evenodd"/>
    <path d="M2359,1365c4.34,1.06,11.9,1,17,3l7,7c3.37,2.18,7.86,1.78,11,4l11,12c6.19,5.09,12.33,10.37,18,16,.94.93,1,3.14,2,4,3.62,3.22,8.73,4.49,12,8,2.65,2.86,3.39,7.07,6,10,2.11,2.37,5.86,3.66,8,6,6.16,6.73,9.92,15.17,16,22,2.76,3.1,7.85,5.39,10,9,4,6.69,4.29,13.79,8,21,2.54,4.92,7.92,9.45,10,15q1,6,2,12c1.61,4.26,6.21,8,8,12,2.5,5.57,1.85,10.26,4,16,1.31,3.49,4.9,8.27,6,12,1.32,4.49-1.08,23.57-2,28-1.83,8.79,2.4,17.23,1,25-6.27,3.79-8.61,7.93-19,8-2.33-1.41-8.69-.54-11-2-7.44-2.61-6.44-8.82-11-14s-11.31-8.88-16-14c-2.62-2.87-3.37-7.11-6-10-2.89-3.18-7.63-3.19-11-6-6.8-5.67-1.66-11.63-5-20-1-2.51-4.39-2.22-6-4l-6-16c-1.66-2.58-5.33-5.43-7-8-3.3-5.09-3.06-11.3-6-17-2.05-4-6.65-7.4-9-11l-3-9c-1.7-3.19-6.21-6-8-9-4.06-6.94-5.48-14.61-10-21-2.52-3.57-6.24-2.52-10-5-3.18-2.1-4.33-7.29-7-10-3-3.06-8.7-7.64-13-9-3.13-1-5.66.37-8-1l-14-14c-9.14-5.75-19.62.21-20-15,.8-1,.35-.27,1-2,7-3.68,14.25-7.87,20-13,3.19-2.84,5.22-7.77,9-10C2345.59,1370.52,2355.14,1373,2359,1365Z"  fill-rule="evenodd"/>
    <path d="M2738,1372l3,1-1,1c-1,.8-.27.35-2,1Z"  fill-rule="evenodd"/>
    <path d="M2451,1393c15.51.12,19,10.74,29,15l6,1c1.81,1,3.91,4.26,6,5l12,1c5.3,2.69,10.88,9.58,16,13s10.33,3.7,16,7c4.66,2.71,10.17,7.32,15,10,7.33,4.07,25.44,9.19,28,17,.8,1.18.77,1.68,1,4-9.76,8.82-12.7,6.28-26,11-14.7,5.22-28.36,11.34-48,13-5.78-9.33-9.38-18.76-15-29-2.31-4.2-6.91-6.61-10-10-6.33-6.93-10.36-15.38-16-23-5.92-8-19.48-15.41-21-27Z"  fill-rule="evenodd"/>
    <path d="M2260,1548c-2.72,0-4.6,0-6-1,4-2.2,4.7-19.09,3-26-.85-3.48-.45-13.68-2-18s-6-4.14-9-7c-5.4-5.16-1.12-13.67-4-22-.94-2.71-5.08-5.28-6-8-1-2.89.16-8.58,1-10,2.69-7.91,11.22-17.28,19-20,3.06-1.07,5.62.2,8-1,2.55-1.28,5.07-5.3,8-6s3.66,1.77,5,2c.14,0,17-6,17-6v-5h6c-.12-5.22.57-7.89,2-11h1c.06,17.48,12.47,26.06,17,39,2.75,7.87,1.17,14.57,4,22,.63,1.66,3.45,4.32,4,6v14c1.37,4.57,6.53,7.87,8,12,2.09,5.86,0,10.76,2,16,2.54,6.56,7.92,14,10,22v14q1,7,2,14c-2.33,10.15-4.54,21.62-1,30-9.82,1.86-5.86,8.81-10,16-5.07,8.81-18.76,30.48-29,33-4.61-6.51-16.69-4-25-6-2.86-11.58-13.12-17.39-18-29q-.49-8-1-16c-1.67-6.78.2-19.06-2-28C2262.5,1561.91,2260.29,1555.72,2260,1548Z"  fill-rule="evenodd"/>
    <path d="M2156,1566c-.34,6.83-2.53,16-4,22v12c-1.16,3.25-5,4.66-7,7-3.12,3.57-3.3,9-6,13l-6,6c-5.3,8.58-4.57,21.71-17,23-3.69,3.31-12.36,3.61-18,2-16.5-4.7-21.1-23.13-26-39-7.2-23.3,3.77-41.23,8-58,.91-3.6,2.62-23,2-25-1.29-4-6.57-8.71-8-13-4-12,2-24.23,5-32,1.73-4.54,1.19-7.82,4-11,6.12-6.93,16.21-6.49,25-11,6.85-3.51,24.76-24.66,40-15,4.78,1.65,19.16,16.42,21,21,2.24,5.56,2.05,9.51,5,14,3.17,4.83,7.13,11.34,11,16,1.42,1.71,4.69,2.11,6,4,3.77,5.43,5.25,10.76,10,15,4.21,3.76,11.06,5,15,9-.33,1-.67,2-1,3l7,6c1.7,2.56.56,4.84,2,8,1.35,3,4.42,5.85,6,9-14.72.9-35.26,2.78-48,6h-8C2167.66,1560.14,2165.18,1565.15,2156,1566Z"  fill-rule="evenodd"/>
    <path d="M1880,1486h22c3.67,1.19,7.65,4.9,12,6,8.56,2.17,19.31.52,26,2,3.58,5.78,9.38,11.13,12,18,1.61,4.24.39,8.93,3,12l3,1c6.81,4.06,21.26,3,31,3h10c1.45.62,4.36,4.21,6,5l11,2c3.83,2,7,7.84,11,10,7.6,4.06,16.17,4.18,19,13-12.78.35-12.57,7.8-29,8l-4-4c-4.23-1.18-11.65,3.14-15,4h-20c-2.29.58-7.46,2.28-10,3-9.74,2.77-21.74-4.63-26-2-9.35,5.78-2.52,25.85-6,39-.69,2.6-.66,7.86-1,9l-3,3v8c-1.41,4.21-5.75,7.67-8,11l-3,9c-3.26,5.57-8.66,9.49-13,14-8.29.65-16.88,1.65-26,1-2.76-3.81-8.49-5.1-11-9l-3-10c-1.54-2.42-4.8-5-6-8-.33-2-.67-4-1-6l-4-4q.49-9,1-18c-.72-2.09-4-4.2-5-6-.54-1-3.79-13.22-4-14-.6-2.22,3.44-3.85,4-5,3.17-6.52,1.42-21.84,3-28,2.2-8.56-2.52-13.78-4-18-6.88-19.57,10.37-44.85,22-46C1875.53,1487.65,1878.31,1487.25,1880,1486Z"  fill-rule="evenodd"/>
    <path d="M1730,1666c-5.58.12-10.18-2.5-14-2-2.54.33-5.63,3.06-10,2-11.13-2.7-33.79-13.94-35-26-4.15-6.59,2.75-13.16,1-20-.6-2.34-3.29-5.39-4-8-3.65-13.36-.38-26.58,2-39q-1-6.49-2-13c1.32-6.3,5.37-11.41,7-19,5.28-2.59,8.56-7.7,13-10,5.62-2.91,10.68-2.19,15-6,3.68-3.24,5.89-8.09,11-10l20-1c13.68-3.26,24.83-7.69,40-4h12c4.13,1.42,7.46,6.59,12,8,16.81,5.21,37.22-2.06,43,14,3,5.1-4.6,40-6,46-11,.8-29,1-41,4-7.34,1.84-15.31-3-20-2-1,.22-18,9.85-19,11-4.77,5.3-2.33,10.85-5,19-.74,2.26-4.07,5.08-5,7-1.59,3.27-2.26,10.15-3,13v8c-1.1,2.39-5.26,3.16-7,5C1731,1647.26,1730,1658.15,1730,1666Z"  fill-rule="evenodd"/>
    <path d="M1618,1572c.2,2.33.19,2.83,1,4,4.71,13.06,13.22,0,13,22-1.72,1.73-1.5,2.78-4,4-10.72,7.82-27.43-3.45-38-4-2.09,19-8.78,38.65-18,51-3.15,4.23-7.8,4.72-12,8-3.17,2.48-5.2,9.2-7,13-19.54,3.18-22.56,13.64-42,1-3.87-2.51-7.23-2.25-9-7-2.41-3.31-.61-7-2-12-.66-2.35-3.46-5.33-4-8-1.2-5.94,2.71-20.6,4-26,1.62-6.78-3.2-10.36-2-16,1.7-8,11.23-28.6,18-31,5.92-3.69,18.26.84,26-1s41.67-7.29,52-4C1601.35,1568.34,1606.39,1571.88,1618,1572Z" fill-rule="evenodd"/>
    <path d="M1292,1571a186.45,186.45,0,0,1,38,5h36c3.62,4.74,9.64,9.82,14,14,.54,35.76-13,40.84-30,58-13.59,0-36.36-8.06-43-15-3.09-3.23-1.59-8.86-4-13l-6-6c-7.47-11.77-10.17-20.83-10-39A25,25,0,0,0,1292,1571Z" fill-rule="evenodd"/>
  </g>
  <g class="g_to_interact" id="MainColor" style="isolation: isolate">
    <path d="M3242,1246c16.77,1,27,12.55,39,19a69.61,69.61,0,0,0,11,5c3.91,1.15,8.14-.82,11,1,4.52,2.88,6.55,10.65,11,14,6.09,4.59,15.16,6.86,21,12,2.36,2.08,3.64,5.91,6,8,4,3.53,10.09,4.43,14,8,4.43,4,7.5,10,12,14,5.82,5.13,14.33,6.81,20,12,3,2.78,4.92,7.26,8,10,6.53,5.81,13.87,9.87,20,16,2.27,2.27,3.6,5.89,6,8,3.28,2.89,8.72,3.11,12,6,2.8,2.47,5.21,7.52,8,10,3.19,2.84,7.41,3.53,11,6,4.35,3,7.09,8.56,11,12l15,8c4.31,3.1,7.07,8.54,11,12,3.55,3.13,9,3.29,13,6,4.37,2.94,7.1,8.57,11,12,4.68,4.12,13.32,3.89,18,8,1.65,1.45,2.36,4.55,4,6,4.6,4,11.71,4.63,17,8,3.48,2.22,6.53,6.74,10,9,3.18,2.07,6.3,1.06,10,3,1.9,1,3.36,4.62,5,6,3.29,2.78,6.78,1.77,11,4,6,3.16,10,11.58,15,16,3.28,2.89,8.72,3.11,12,6s5.23,7.73,9,10c3.57,2.15,8.05,1.42,11,4,2.5,2.19,5.5,7.8,8,10,3.55,3.13,9,3.3,13,6,1.93,1.3,3.23,4.51,5,6,3.69,3.11,10.36,2.84,14,6,2.68,2.33,4.71,6.24,8,8,3.64,1.94,7.14,1.48,10,4,2.53,2.22,4,6.2,7,8,28.95,17.46,57.19,34.49,75,63l6,6c2.53,4.9,9.16,29.77,4,38-1.45,5-4.84,7.64-11,8-2.57-1.84-7.17-1.2-10-3-4-2.55-4.39-9.34-8-12-3.15-2.32-7.44-1.23-10-4-5.55-6-2.23-13.52-14-14-.71.57,0,1.44-2,1v-1c-7.71-2.62-6.72-9.63-12-14-2.7-2.23-7-2.13-9-5s-1.79-6.55-4-9c-5.06-5.62-14.25-5.93-21-10-4.32-2.6-5.51-8.57-9-12-4.12-4-15.31-6-21-9-2.41-1.29-3.16-5-5-7-7.08-7.66-16.65-14.74-31-15,.75,28.09-2.69,53.23-10,74-1.59,4.51-6.47,9.47-8,14v8c-1.87,5.48-6.85,12.4-9,18-1.48,3.87-.31,6.24-2,10-3.68,8.16-10.59,15.57-14,24-15.87,39.26-31.62,78.1-53,112l-7,22c-17.88,30.28-52.3,99.36-32,150,4.2,10.48,19.93,29.88,28,37,2.49,2.2,6.2,2,9,4,3.19,2.23,4.14,7.41,7,10,6,5.45,14,7.5,21,12l8,8c6.87,4.43,14.79,6.79,21,12,10.46,8.78,23.55,13.75,35,22,3.53,2.54,5.78,7.15,9,10,4,3.53,10.09,4.43,14,8,6.14,5.59,9.09,15.26,20,16,2-2.47,9.4-4.53,13-2a12.14,12.14,0,0,1,9,11c5.05,7.9-1.56,21.49-3,26v22c-.53,1.64-3.48,4.36-4,6v14c-3.25,13.07-10.73,32-7,50,2.59,12.51-2.2,30.33,1,44,.92,3.92,3.61,11.49,2,18-.79,3.2-1.33,10.16-3,14-2.75,6.3-9,13.12-11,20-3.28,11.13,1.12,23.39-2,36-3.18,12.88-5.07,30.12-8,42-2.06,8.34-.49,19.79-2,26v34l-6,16c-2,7.48.08,13.65-2,22-4.24,17-7.87,37.2-12,54v14c-4.15,16.63-7.75,37.67-12,54q-.49,6-1,12c-6.69,17.84-13.55,40-20,58-3.16,8.82-2.27,19.45-6,28-3.48,8-9.9,17.81-13,26-4.21,11.12-4.26,21.36-9,32-2.06,4.63-6.21,11.12-8,16q-1,6-2,12c-3,6.72-8.56,14.6-12,21-2.76,5.13-3.09,10-6,15-5.16,8.93-12.37,13.92-13,28,3.63,3.38,5.9,6.95,6,14-3.06,3-3.46,5.16-9,6-5.3-4.56-12-8.22-16-14-5.14-7.48-8.15-16.18-14-23-4.82-5.62-11-10.53-16-16-3.82-4.21-5.76-10.25-10-14-5.89-5.21-14.51-7.57-21-12-4.73-3.23-12.08-11.74-18-13-4.17-.89-9.65,3.57-16,2s-10.6-5.36-18-6v-4c-13.82-7.93-28.2-11.56-44-18-2.11-.86-4.15-3.92-6-5-5.84-3.39-11.57-3.45-18-6-3.13-1.24-6.86-4.77-10-6-5-1.95-8.84-1-14-3-13-5-25.43-15.1-38-20-6.71-2.61-11.8-1.86-18-5-1.77-.9-3.79-4.14-6-5-6.42-2.49-12.67-1.66-18-5l-6-6c-10.27-6.47-23.57-8.51-34-14-3.26-1.72-6.7-5.77-10-7h-6c-4.52-1.6-9.47-6.41-14-8-3.06-1.07-5.66.33-8-1-2.5-1.42-5.1-4.85-8-6-3.76-1.49-6.42-.19-10-2-3.34-1.69-7.36-6.24-11-8l-7-1c-4.53-1.76-9.48-6.22-14-8-5.49-2.16-8.57-1.73-14-4-2.74-1.14-5.26-4.86-8-6-9-3.76-17.49-4.41-26-9-7.48-4-6.72-17.56-14-22l-10-2c-6.28-3.11-13.45-10.07-20-13-9.51-4.26-20.45-4.45-30-9-7.74-3.69-15.49-8.05-24-12-7.9-3.66-14.58-11.19-22-15l-18-5c-10.67-6.17-19.49-17.27-32-22-5.44-2.05-10.93,2.24-16,0l-7-8c-3.13-1.9-10.49-6.12-13-7l-14-2c-3-1.14-5.6-4.45-8-6l-14-5c-6.23-3.78-15.32-10.3-22-13l-8-1c-3.66-1.81-7.62-6.32-12-8l-9-2c-4.83-2.79-8.79-9-15-11h-10c-3.89-1.27-9.14-4.88-14-6-7.42-1.71-16.64,5.61-24,1-8.69-2.85-12.77-12.52-19-18s-23.08-9.95-33-12c-6.76-13.48-18.95-11.41-32-18-1.76-.89-3.84-4.07-6-5-4.1-1.77-8-1-12-3-1.84-.95-3.92-4.2-6-5l-8-1c-1.84-.93-3.93-4.21-6-5-4.8-1.82-8.2-.19-13-2-1.54-.58-3.44-3.56-5-4l-9,1-3-3c-4.27-1.56-7.21-.33-11-2-1.63-.72-3.37-3.28-5-4l-11-3c-6.47-4.2-10.78-11.91-19-15-5.71-2.15-10.68.22-17-2-3.2-1.13-6.87-5.47-10-7-6.27-3.06-11.11-2.38-18-5-1.63-.62-3.4-3.3-5-4l-17-4c-1.6-.7-3.38-3.39-5-4-9.25-3.47-24.19,1.45-34-2-4.56-1.6-15.94-13.56-22-17l-10-2c-6.16-2.94-11.43-9.09-17-12-5.9-3.08-12.12-3.1-17-7,.72-1.46.16-4.29,0-8h6c.23-4.86,2.05-9.68,1-12-.42-1.28-16-21.29-17-22l-4-1c-3.62-2.63-4-8.66-7-12-8.31-9.38-23-21.63-39-23-.2-2.33-.19-2.83-1-4-3.7-10.55-12.26-9.49-21-15-3.91-2.46-6.75-7.83-11-10-5.17-2.64-9.83-1.95-14-5l-17-17c-3-1.77-8.27.72-12-1-1.37-.63-4.33-3.76-6-5-8-6-15.75-15.38-25-20l-15-2c-9.5-4.19-19.32-12.91-28-18-5.29-3.11-10.91-3-16-6-1.84-1.07-3.72-4.08-6-5-4.06-1.63-6.76-.85-10-3-4.37-2.91-8.59-9.3-14-11l-4,1c-2.66-.55-5.92-3.22-8-4-5.3-2-11-.4-16-3-2.41-1.26-3.1-5.18-5-7-5.48-5.27-14.52-6.72-20-12-2.1-2-2.73-6.18-5-8-3.89-3.13-9.8-3.19-14-6-3-2-5.74-6.21-9-8-4.29-2.36-8.38-1.58-13-4l-6-6c-8.26-5.16-17.53-7.06-26-12-4.15-2.42-7.87-7.59-12-10l-14-4-8-8a79,79,0,0,0-12-6l-11-2c-14.54-9-26.42-24.71-49-25v-4c-8.15-4.81-14.67-12.88-23-17-7.21-3.57-14.2-2.66-21-6-11.21-5.51-23.78-14.69-35-20-6.53-3.09-8.8,4.6-17,2-7-2.22-14.39-8.9-21-12-3.86-1.81-9.36.68-14-1-9.94-3.61-13.55-19.35-23-24-4.4-2.16-8.38-.24-13-2-14.88-5.67-28-18-42-25-5.66-2.81-12.69-1.24-19-4-4.73-2.07-9.47-6.6-14-9-9.33-4.93-19.49-7.24-28-13l-5-6c-4.52-2.71-8-1.12-14-3-3.39-1.06-5.87-4.64-9-6-5.24-2.28-9.22-2.34-14-5l-8-8c-6.94-4.68-14.64-5.52-22-10-6.81-4.15-13.3-10.7-20-15-11.37-7.31-26.6-8-40-13-12.69-4.73-24.83-12.19-37-18l-20-6c-3.61-2.54-3.34-9.21-7-12-4.85-3.12-10.93-3.35-16-6-10.44-5.46-21.73-13.43-34-17-9.68-2.82-19.17-1.33-28-5-4.62-1.92-7.81-7.36-12-9s-7.27-.3-11-2c-2.67-1.22-4.33-4.78-7-6l-11-3c-2.47-1.58-4.82-6.07-8-7-1.85-.54-3.92.68-7-1-2.75-1.5-5-5.92-8-7h-9c-3.14-1.46-9.29-11.18-13-13-1-.52-23.31-2.9-25-3-7.28-11-31.73-24.1-33-37l11-11c5.33,2.29,17.26,0,27,3,5.11,1.56,8.2,5.22,12,7,8.11,3.81,17.3,1.88,26,5,4.44,1.6,9.92,5.65,14,7l12,1c2.85,1.22,8.19,4.46,12,5,2,.29,3.86-1.8,5-2l19,4c3.15,1.31,4.85,5.69,8,7l12,2c4.76,1.71,11.69,5.53,16,7l20,3c2.38.89,5.59,4.22,8,5h12c12.72,3.16,29.24,4.1,42,9,3.48,1.34,6.63,5.84,10,7h32c19.22,4.7,48.55,7.81,71,8h23c3.38-.88,13.94-4.4,20-2l4,4c10.22,4.06,34.86-5.41,44-4,4.93.76,10.14,4.77,14,6,8.45,2.7,41.79-.48,48-2h17c20,0,35.38,2,54,2,18.4,0,39.53-.21,55-4,10.12-2.48,24.09-.06,32-2h16c15.19,0,34,1,46-2h56c20.43-4.94,51.1-2,75-2h33c17.16,4.17,41,1.83,58,6h30c9.68,2.33,26.05-.86,38,2,13.79,3.3,35,2,52,2,14.37,0,26.11,2,42,2h12c6.55-2.12,18.79-6.16,26-8,19.59-5,24.67,10.15,43,6,22.65-5.13,44.74-4.94,67-10l30-3c5.79-1.83,14-5.43,20-7,8-2.1,13.71.16,22-2,3-.79,7-3.23,10-4h12c20-5.44,42.29-11.63,61-18h21c3.17-1.48,4.67-7.28,8-9l8-1c4.87-1.53,9.95-5.07,14-7l11-2c1.87-.94,3.94-4.08,6-5l14-3c1.87-.94,3.94-4.09,6-5l16-3c6.55-3.11,14.23-8.7,21-12,8.25-4,16.62-3.92,25-8,2.27-1.11,5.3-4.18,8-5l10-1c5.34-2.66,12.39-8.81,18-11l7-1c10-5.74,22.39-13.13,32-20l6-6c7.36-4.14,13.8-6.46,21-11l9-9c2.69-1.41,5.6-.44,8-2l7-8c4.57-3.34,9.43-7.26,14-10l7-2c11.67-7.63,21.47-20,33-28,3.36-2.34,6.77-.87,11-3l7-9c3.11-2.25,7.64-1.81,11-4,7.55-4.91,13.55-14.58,21-20,3.53-2.57,7.47-3.43,11-6,6.75-4.91,12.46-14,20-18,2.69-1.41,5.6-.44,8-2l13-14c6.72-4.92,12.27-9.09,19-14l7-8,7-2,17-18,7-2,7-8c5.15-3.77,9.85-6.24,15-10l9-10c16.25-11.85,31.77-24.57,48-36,11.81-8.31,23-15.07,33-25,10.52-10.46,27.16-17.31,37-28,3.12-3.39,3.1-8.35,7-11,10.9-7.41,16.17,1.48,16-19,4.24-5.66-2.57-9.6-1-14,1.61-5.83,5.21-10,13-10,1,.8.27.36,2,1l1,3C3241.8,1243.18,3241.77,1243.68,3242,1246Z"  fill-rule="evenodd"/>
    <path d="M2086,1822c-.33,2-.67,4-1,6-3.34,1.9-8.48,4.13-10,8-1.87,2.84-.4,6.25,0,10-4.95-1.27-5.22-6.07-9-5-7.52,2.87-5.53,9.86-9,17-2.86,5.89-10.06,8-11,16h-6c-.44,9.65-7.2,12.64-10,20-2.48,6.51-7.66,29.49-6,36,1.07,4.2,4.09,12.58,5,17,.76,3.67-2.6,4.93-3,7-1.63,8.41,9.49,26,15,28,2.35,1.54,4.28.59,7,0v6c-4,6.6,3.34,10.31,5,14,2.34,5.22-1.94,8.75,0,13,2.84,6.24,9,15.5,14,20,2.44,2.19,7,2.43,9,5,.33,1.67.67,3.33,1,5h2c1.65,1.76,2.32,4.28,4,6,.88.9,3.22,1.06,4,2,1.78,2.15,1.12,6,3,8,3.07,3.3,11.92,4.38,16,7,3.67,2.36,4.69,8.64,8,11,4.86,3.47,7.48-3.13,8,7,5.78.62,4.87,2.89,10,4v-2c-.8-1.18-.77-1.68-1-4,2.08.37,1.92.24,3,1,3.19,3.35,2.63,7.5,5,12,3.56,6.75,12.89,14.87,21,17,.42-3.58-.47-2.52,2-4v-1l1,1c4.9,4,1.59,8.77,11,9,2-1.88,3.84-2,8-2,2.59,3.2,7.8,4.59,10,8,2.3,3.57,2.6,7.69,6,10l12,4,6,7c8.3,5.35,22.56,4.85,23,18-.8,1.18-.77,1.68-1,4,7.77.5,12.74,4.88,18,6,2.53.54,7.79-1.25,12-1,13.13,20.06,23.37,17,46,26,3.53,1.41,6.61,5.64,10,7,5.41,2.17,10.67.68,16,3,7.93,3.45,18,9.09,26,12l12,1c4.62,1.55,9.1,6.57,14,8h12c2.41.79,5.62,4.11,8,5l10,1c7,2.42,14.35,8.29,22,11,12.51,4.43,28.57.39,40,5,2.74,1.1,5.26,4.9,8,6,5.33,2.14,9.79.36,16,2,8.19,2.16,19.46,5.81,28,8l12,1c3.49,1.33,6.63,5.84,10,7h14c7.77,2,18.33,7.53,26,10,10.45,3.36,22.94-.92,34,2,3.42.9,7,3.91,10,5,7.85,2.85,15.75.27,24,3,4.13,1.37,10.74,4.7,16,6h16c1.64.53,4.36,3.47,6,4h14c7.09,1.76,15.55,1.81,24,4,4.79,1.24,10.13,4.75,14,6h12c3.34.84,8.66,3.17,12,4h18c8.29,2.06,19.12,5.78,26,8,8.25,2.66,13.65.18,20,0,13.12-.37,22.66,1.7,32,4h24c3.34.83,8.66,3.17,12,4h28c13.85,3.53,35.63,6.43,50,10,13.76,3.42,28.31-1.36,42,2,8.85,2.17,20.86,2.22,30,5,3.33,1,8.43,5.43,12,5,2.11-.25,5.6-3.38,8-4,14.94-3.85,38.23,2,53,2h45c4.34,1.06,12.58,5.09,18,4,3-.6,7-3.25,10-4,18-4.54,41,3.66,56,0,16.11-3.94,31.85,3.95,48,0h20c5.34,0,8.65-1.18,12-2,10.84-2.65,21,1.88,30,2,18.73.26,32.53-2,52-2,20.48,0,37,2.65,56-2,11.76-2.88,37,.24,46,2,5.44,1.06,16.51-2.82,21-4,8.4-2.21,21.43.64,27,2h44c6.11.61,16.25,4.31,22,0,3.8-3.8,12.42-21.67,7-30-2.36-7.35-8.7-11-11-20v-14c-4.08-16.72,1.16-19.91-12-32v-8c-12.28-.4-20.56-10.73-32-14h-52c-1,.3-4.58,2.79-6,3-7.49,1.12-24.4-.62-30-1l-9,1-3-3c-7.79-3-16.94,1.67-23,2-6.24-8.89-30.94-2.5-39-1-2.84.53-6.31-2.49-8-3h-16c-2.14.51-15.22,3.72-18,3-.79-.2-3.21-2.75-4-3h-30c-10.94,3.69-27.5-4.58-44-2-7.1,1.11-11.64-1.95-18-4h-16c-7.07-1.75-21.76-2.81-29-4h-25c-3.35-.83-6.66-1.94-12-2a19.88,19.88,0,0,1-2,8c-2.81,1.51-5,2-10,2-1-.8-.27-.35-2-1-1.71-2.73-2.54-2.5-3-7-.8-1.18-.77-1.68-1-4-10.08.19-18.28-2-26-4l-16-1c-4.07-1.85-8.37-5.63-14-7-6-1.46-7.55,3.83-13,2-11.22-3.77-24.58-8.78-37-12l-16,1c-3.82-1.19-8.21-5.67-12-7-6.54-2.3-14.38-2.54-20-4h-12c-3.45-.91-6.1-3.05-10-4v2a17.54,17.54,0,0,1,4,8h-2c-3.05-3.53-10.94-13.24-16-11-4.15,1.3-5.63,3.73-10,5-.06-3,.33-6.2-1-8s-23.72-9.66-29-8c-3.17,1-4.78,4.14-8,3-5-1.82-5.48-7.3-10-9l-14-2c-5.39-2-27.36-13.18-36-10-2,.74-2.39,2.43-6,3-10.3-13.85-20.18-9.43-38-15-2.61-.82-5.64-3.31-8-4h-8c-3.28-1.09-6.59-4.83-10-6l-18-3c-8.15-3.45-17.26-8.54-28-9-2.17,2.66-3.9,1.91-5,6h-3c-.33-2.33-.67-4.67-1-7-3.42-1.36-5.69-4.73-9-6-9.82-3.78-18.29-3.36-28-7-4.73-1.78-11.67-6.5-16-8l-12-1c-11.86-4.22-22.07-11.09-37-12-2.29,2.73-3.19,4.49-8,5-10.07-18.34-44.07-27.6-67-24a33.79,33.79,0,0,0-1-8c-4.6-2-10.53-5.48-15-7l-9-1-3-4-6-1c-6.11-2.44-13.85-7.65-20-10-6.34-2.42-11.54-1.7-17-5-3.47-2.1-4.51-7.2-9-9-3.77-1.51-6.39-.21-10-2l-4-4-12-1c-4.3-2.58-4-10.06-8-13-4.92-3.65-10.89-4.46-16-8-8.28-5.74-13.69-16.17-21-23-19.44-18.16-32.86-28.71-45-55-2.72,0-4.6,0-6-1-1.16-2.13,1-2.46,0-6-.66-2.24-4.18-4.28-5-6-3.56-7.49-.45-23.81,1-30q-.49-6-1-12c1.47-4.58,7.61-7.53,9-12s-2.35-14,4-18c1.83,2.88,2.42,3.61,7,4,3.36-4,8.12-7.63,11-12,.67-2,1.33-4,2-6,2.49-3.57,7.41-5.13,10-9h-1c-1.58,2.51-2.86,3.94-6,5v-1c.8-1,.35-.27,1-2,3.58-2.09,8.42-4.86,11-8,.33-1,.67-2,1-3,3-2.27,8.67-.86,12-3,4.71-3,4.85-10.27,8-15,3.71-5.57,14.29-11.35,16-18-.33-2.33-.67-4.67-1-7,1.06-3.32,3.51-3.68,4-9l-1-1c-6.64-.17-10.06-3.25-16-2-23.44,4.92-53.13,5.85-76,12l-17,1c-13.41,3.09-31,4.77-45,8-10.19,2.34-17-7.24-30-4-7.5,1.88-18.5,2.06-26,5-2.78,1.09-6.36,4.11-10,5-6.3,1.55-7.68-3.5-14-2-3.63.86-8.7,4.19-12,5l-10-1c-3,.67-7,3.19-10,4l-12,1c-2.78,1.06-5.37,5.27-8,6-3.69,1-7.75-.9-13,2-7.35,4.06-6.25,14.23-17,15-1.18-.8-1.68-.77-4-1-2.18,2.94-5.5,4.42-8,7-1.75-.63-1-.19-2-1-5.61-2.13-3.83-5.67-12-6-5.06,4.29-12.87,4.79-19,8-7.33,3.84-17.34,11-23,17Z" fill-rule="evenodd"/>
    <path d="M1890,2034v3c4.38.51,6.26,2,10,3v-3a17.82,17.82,0,0,1-4-3Z" fill-rule="evenodd"/>
    <path d="M1902,2039l-1,1c-1.92.78,2,1,2,1l1,1v-2Z" fill-rule="evenodd"/>
    <path d="M3624,2358v2h13l1-1v-1Z"  fill-rule="evenodd"/>
    <path d="M3590,2681c0,3.16,1,3,1,3v-3Z"  fill-rule="evenodd"/>
  </g>
  <g class="g_to_interact" id="ForStykke" style="isolation: isolate">
    <path d="M730,1528h4c.33,2.33.67,4.67,1,7,4.3,3.33,16.82,12.32,27,9,2.23-.73,2.53-2.32,6-3l1,1-1,4c13.88,0,12.59,8.7,24,10a33.79,33.79,0,0,0,1,8c3.22,1.46,6.31,4.91,9,6h18c19.49,4.88,43.26,3.32,62,8h10c31.68,8.11,64.37,15.4,94,27,23.6,9.24,47.53,21.47,70,32,4.82,2.26,12.23-1,18,1a90.65,90.65,0,0,1,18,9l3,4,12,2c7,3.31,28.18,25.63,29,35,10-.23,20.16-3,26,1,1.64,1.13,2.32,4.94,4,6,3.81,2.4,8.6,1.53,12,4l7,9h7l4,4h8l11,10c9.46,3.61,21.22,2.71,30,7,7.81,3.81,15.3,10,23,14,5.59,2.94,11.11,2.92,17,6,7.46,3.9,11.35,13.63,18,18l11,3c3.24,1.27,6,4.94,9,6h9c1.62.57,3.42,3.29,5,4l9,2a141.82,141.82,0,0,1,14,9l6,7,13,3c4,2,9,6,13,8,4.9,2.41,10.16,1.47,15,4,3.93,2,5.47,8,9,10,4.63,2.62,12.35-1.09,18,1l8,8h20c1.68.55,4.34,3.36,6,4l8,1c3.3,1.28,27.1,18.44,29,21,3.14,4.24,5.78,10.09,11,12,7.19,2.63,13.75-.19,20,3,3.32,1.7,6.71,7,10,9l11,3c7.84,4.67,13.89,13.07,23,17,5.87,2.53,14-1.31,18,1,6.11,3.55,11.33,12.26,18,15,7.52,3.08,11-1.5,18,0,5,1.06,11.56,4.32,16,7,5.9,3.56,8.47,12.36,14,16,5.19,3.42,10.33,3.1,16,6,6.76,3.46,13.22,12.43,20,15l10,1c7.33,2.77,15,11,22,13,2.91.82,5-1.66,8-1,1,.21,13.07,4.08,15,5,6,2.83,11.91,9.93,18,13l11,2,6,6,12,2c4.52,2.23,21.39,15.43,22,21,18.88-.32,25.42,10.59,37,17,5.65,3.12,10.9,2.9,17,6l2,3c5.9,3.74,13.85,4.51,19,9,1.83,1.6,2.86,4.65,5,6,3.6,2.27,7.57,1.2,12,3,6.76,2.75,13.8,10,20,14,3.21,2.06,6.24,1.09,10,3,5.55,2.82,11.52,9.11,17,12,4.27,2.25,9,1.6,13,4,3.37,2,6.65,6.81,10,9,8.52,5.56,19.2,7.73,28,13l8,8c7,4.2,15.63,3.54,22,8,2.77,1.93,2.57,7,5,9,2.25,1.83,9,.37,13,3,3.36,2.22,6.56,6.79,10,9,2.62,1.69,4.68.69,8,2,4.19,1.66,8.42,5.75,12,8l10,3c9.07,5.28,19.18,13.37,29,18l15,2,3,4c7.26,5.12,14,8.88,21,14l6,7h10c9.21,3.27,14.47,16.4,23,21l11,2c2.76,1.41,4.69,6,7,8,3.95,3.45,10.39,3.09,15,6,4.09,2.58,6.58,7.66,10,11v4c28.35,2.28,42.19,30.3,57,47,5.48,6.19,12.71,7.2,13,19-17.63,11.42-29.75,1.38-46-4h-8c-1.66-.56-4.34-3.42-6-4-3.07-1.07-5.66.33-8-1-6-3.43-13.43-10.56-20-13h-6c-2.27-.81-5.06-4-7-5l-11-2c-7.58-2.78-14-8.68-21-12l-9-1c-2.26-.8-5.07-4.05-7-5-6.46-3.17-12.73-2.3-19-5l-7-7h-9c-6.1-1.94-12.4-6.8-18-9-6.27-2.46-11.72-1.89-18-5-3.85-1.91-10.73-9.51-14-11h-10c-5.17-1.71-12.15-6.59-17-9l-9-2c-2.07-1.05-4.82-4.82-7-6-4.4-2.38-8.12-1.76-13-4-3.76-1.72-7.41-6.14-11-8l-9-2c-6.88-3.5-12.81-12-20-15-6-2.51-9.34-1.65-16-4-5.57-2-13.7-6.95-20-9h-8l-4-4-10-2c-2.43-.93-5.58-4.06-8-5-8.1-3.15-16.89-2.74-24-7l-6-6c-4.19-2.64-9-2-14-4-5.81-2.31-12.29-8.37-18-11l-12-2c-4.13-1.69-7.11-7-11-9l-9-1c-4.82-1.79-9.41-8-14-10-5.86-2.53-14.46-2.27-20-5l-2-3c-4-2.47-9.47-2.2-13-5-.74-.59-.94-2.5-2-3-4.26-2-9.2-.84-13-3-4.91-2.79-10.66-8.86-16-11l-14-2c-6.12-2.25-11.94-9.57-18-12l-12-2c-5.68-2.29-10-8.68-16-11-13.38-5.22-25.17-5.89-36-13-3.47-2.28-6.12-6.88-10-9-5.54-3-14.68-2.83-20-6l-8-9c-11.19-6-24-9.52-35-15l-9-2-6-7-14-1-6-7-8-1c-2.34-1.16-5.15-4.91-8-6l-8-1c-7.73-3-15.85-9.32-23-13l-9-2c-8.31-3.8-16.43-11.52-24-16-5.47-3.24-10.29-3-16-6-1.9-1-3.38-4.57-5-6-3.51-3.1-17.32-13.27-21-15-6.26-3-13.42-2.53-20-5-5.78-2.17-12.18-7.67-18-10-5.32-2.13-10.57-1.31-16-4-3.33-1.65-7.36-6.27-11-8l-9-1c-5.5-1.54-11.2-5.06-16-7h-4c-2.63-1.37-4.85-5.85-8-7l-10-1c-3-1.12-6.39-4.66-9-6-7.14-3.68-13.71-4.46-21-8-3.41-1.66-6.29-6.51-10-8l-12-2c-9-4.45-20-12.19-30-16l-28-6c-4-2-9-6-13-8l-9-2c-2.63-1.37-4.85-5.83-8-7h-6c-8.22-2.9-17.44-9.23-25-13l-9-2c-3.5-1.84-5.91-7.54-10-9l-12-1c-6.7-2.56-13-9.2-20-12-6.38-2.56-11.15-2.38-18-5-6.24-2.38-13.56-7.79-20-10l-12-2c-1.67-.63-4.32-3.42-6-4l-10-1-11-12a178.2,178.2,0,0,0-17-8l-22-1c-1.64-.54-4.35-3.47-6-4H958c-3.34-.84-8.66-3.15-12-4l-12-1c-11.66-5-26.38-11.48-38-16-3.86-1.5-6.25-.3-10-2-9-4.08-18-11-26-16-7.32-4.58-16.53-5.64-24-10-4.46-2.6-7.87-8.36-12-11-5.64-3.61-12.32-4-18-7-16.27-8.63-34.16-20.23-52-27l-8-1c-4-1.57-7.41-6.11-11-8l-9-2c-5.84-2.65-12.33-8.72-18-11-10.34-4.16-20-4.55-30-9-13.89-6.19-29.84-14.5-44-20-5.84-2.27-12.26-1.07-18-4l-6-6c-2.63-1.62-4.81-.56-8-2-8.26-3.72-19.5-8.78-28-12-13.78-5.22-47.31-9.34-57-17-.8-1.18-.77-1.68-1-4,5.37-3.1,12.75-5.28,18-9l6-7h12c5.24-2.65,13.06,1.59,22-2,4.11-1.65,5.69-6.31,10-8,2.3,4.46,5.58,7.56,12,8,2.42-2.58,14.84-9,20-8,3.88.75,6.6,5,12,4s11.91-4.76,16-6c5.92-1.8,9.16,2.3,12,3,5.62,1.38,6.3-4,12-3,6.28,1.14,13.5,4.34,20,5,2-2.67,3.56-3.64,8-4,7,6.69,23.24,1.32,34,1Z"  fill-rule="evenodd"/>
  </g>
  <g class="g_to_interact" id="UnderSnørebaand" style="isolation: isolate">
    <path d="M2594,1698c-29-.62-47.52,5.63-68,13-7.06,2.54-15.83,3.42-22,5h-12c-3,.79-7,3.21-10,4h-10c-10.94,2.78-25.76,5.2-36,8h-21c-18.88,5.08-41.61,8.62-61,14-6.66,1.85-16.64.55-22,2-9.06,2.44-15.42-2.51-20-4-6.5-2.11-15.06,1.31-19,2h-50c-21.43,5.68-65.92,2.82-85-2-8.88-2.25-21.31-.19-28-2h-31c-6-1.61-17.83.17-26-2-28.85-7.68-73.17-4-108-4-10.68,0-23.28-.08-31,2h-15c-14.74,0-33.44-1.12-45,2h-16c-15,0-34.16-1.19-46,2-15.26,4.12-28.14-6.66-42-3-1.33.35-4.67,2.63-6,3h-47c-12.14,3.23-31.65,2-47,2-9.87,0-36,5.59-45,2-1.18-.47-3.53-3.52-5-4h-47c-3.76,1-14.5,4.28-21,2l-4-4c-5.86-2.52-16.79,1.13-20,2h-24c-21.93-.29-51.19-3.25-70-8h-32c-3.37-1.19-6.51-5.65-10-7-12.76-4.94-29.29-5.78-42-9-5.34-1.35-14.61,2.18-18,1-2.22-.77-3.93-5.09-7-6l-10,1c-3.87-1.08-7.11-6.48-11-8-7.54-2.94-14.44-1.85-22-5l-6-6c-3.65-2.3-14.14-4.44-18-5l-8,2c-14.27-1.84-29-10.38-42-14-9.21-2.56-21.58-1.3-30-5-3.29-1.45-6.52-5.82-10-7-9.6-3.26-20.89,2.3-24,1-5.47-1.7-7.2-7-12-9-6.66-2.71-13.82.07-22-2-8.71-2.21-32.44-8.8-35-16-1-1.42-1-3.27-1-6l4-4c10.44-7.19,31.87-7.8,46-12,2.87-.85,7.12-4,10-5,8.53-3,16.58-.57,26-3,3-.78,7-3.23,10-4h20c6-1.49,18,.3,26-2,2.37-.68,5.35-3.31,8-4,5.48-1.42,10.83,1.22,14,2,14.55,3.6,42.3-.52,50-5v3l6,1c2.42,5.09,6.4,8.8,9,13,.67,3,1.33,6,2,9l6,6c.33,3.33.67,6.67,1,10l11,9c9.08.12,23.16,5.39,27,3,7.64-2.62,26-22.91,27-32,1.44-2.15,1.11-7.31,1-11a152.12,152.12,0,0,1,29,4c11.16,2.9,27.06-.32,36,2,14.63,3.8,36.69-1.81,51,1,2,8.52-.74,24.38,2,34,1.71,6,5.31,11.87,6,20,6.25,3.8,16.43,15.9,28,13,2.2-.55,4.83-3.29,7-4,4.52-1.48,7-.39,10-3,3.68-3.22,5.82-9.38,10-12,6.19-3.88,17.66-1.48,22-7,7.14-9.07.16-34.93,10-41,5.32-3.3,16,.79,23-1,13.51-3.47,39.28-7.83,54-5a96.66,96.66,0,0,1,8,20q.49,6,1,12c2,5.13,22.1,25.58,27,28s15.39,1.11,22,1l8-13c1.06-3-.44-5.71,1-8,2-3.2,7.59-4.18,9-8v-8c2.49-9.75,10.25-37.78,17-42,10.84-6.78,21.42-1.55,35-5,14.52-3.69,32.37-4.17,50-4,2,3.36,5.58,7.23,7,11,.33,3.33.67,6.67,1,10,1,2.73,5,5,6,8q-.49,9-1,18l4,4c4.56,8.9,6.22,20.44,14,26,6.71,4.79,22.36,11.77,33,4,8.43-2.91,10.21-11.13,14-19,2.19-4.55,8.31-8.92,10-14v-8a182.72,182.72,0,0,0,6-48c15.68.13,28.78-1.27,40-4h38c2.34-.61,4-1.9,8-2h16a109.06,109.06,0,0,1,29-4c.06,7.7,3.92,12.84,2,21-2.71,11.51-1.45,45.45,4,54,2.74,4.3,6.81,7,11,10,8.4,6.09,20.2,10.68,33,4,5.51-2.88,6-8.41,9-14,5.62-10.45,20.6-26,24-36,4.25-12.53-1.59-36.13,10-41,8.54-7.21,21.25.59,32-2,15.28-3.68,49.3-7.92,61-7,2,3.57,4.88,7.57,6,12,3.23,12.75-4.88,22.83-2,34,1.61,6.24,6.53,11.72,9,17q.49,6.49,1,13c3.07,9.2,13.76,16.45,20,23,7.23-.11,8.68-2.73,13-4,4.05-1.19,9,2.11,13,2,6.6-11.19,17.38-20.59,24-32l3-14c.88-2.18,4.12-3.82,5-6q1-6,2-12l6-5c4-9-3.78-28.69-2-38h2c1.69-1.14,4.9-1.07,8-1v-5c20.31.08,31.67-9.74,52-6,3.33,8,9.67,11.5,14,18,3.39,5.09,4.45,11.19,8,16,5.46,7.41,12.25,14.28,18,22l11,10c5.14,7.53,8.51,17.18,17,21,9.36,4.21,19.62-1,29-3,2.09-2.84,5.69-5.49,7-9,4-10.62,2-38.6-2-47-5.21-10.91-9.76-17.45-10-35h-4c-5.43-8.88-13-10.07-13-25,2.92-1.84,2.9-2.74,8-3,7.19-4.83,21.05-1.06,30-4,3.85-1.26,10.19-5.33,14-7,12-5.25,24.23-6,35-12,4.93-2.73,7.88-9.45,14-11,7.1-1.8,15.93,7.36,18,11s1,8.13,3,12l8,8c4.31,6.66,6.15,18.52,10,26,3.22,6.26,10.4,10.47,14,16,4.58,7,1.83,14.25,13,15,3.62-3.3,9.2-1.36,15-1,5.29-6.93,26.81-15.82,29-21,1.14-1.69,1.07-4.9,1-8-8.52-6.92-4.42-12.36-9-21-3.65-6.89-11.83-9.63-17-15-2.75-2.86-1-6-3-10-1.19-2.37-4.91-3.33-7-5-1.31-1-.93-2.62-2-4-3.38-4.37-10.75-9.91-15-14,.15-9.18,2.79-16.57,11-17,2.3-.12,4.67,2.1,8,1,8.56-2.83,37.56-26.79,38-37,13.83-.37,14-7.43,22-10,7.24-2.32,12,3.86,20,4,4.4-5,7.09-8.16,17-8,3.41,5,7.65,12,13,15,4.2,2.32,9.22,2.43,12,6,2.34,3,12.09,15.66,13,18l3,18,11,9c7.27.25,20.1,5.4,27,1,12.42-4,6.21-12.36,12-21,1.51-2.25,5.21-3,7-5,5.13-5.68,9.35-18.63,11-27,.78-4-5.75-13.51-7-17-3-8.44-1.72-17-5-25-6.39-15.55-17.77-24.45-29-35a50.14,50.14,0,0,1,1-11c14.66-9.23,31.94-15.82,46-26,5.79-4.19,10.94-11.08,17-15l7-2,9-10c8.63-6.29,18.47-9.81,27-16l5-6,12-4c3.36-1.84,6.7-6,10-8,4.94-3,10.05-3,15-6,2.78-1.66,5.84-5.89,9-7h11c1.59-.54,3.42-3.44,5-4,6-2.14,14.74-2.58,20-4h17c6.37-1.66,22.69-4.53,32-2,24.85,6.75,50.9,9.38,74,18,2.69,1,4.32,5,7,6,5.52,2.17,10.83.58,16,3,13.84,6.49,26.35,14.48,43,18,3.53,6,16.42,19.37,13,27-3.72,10-18.38,9.94-24,18-.67,2-1.33,4-2,6-1.84,2.64-5.56,2.9-8,5-6.78,5.83-13.74,12.71-21,18-1.55,1.13-3.6.75-5,2-2.37,2.11-3.65,5.86-6,8-4.62,4.22-11.29,5.84-16,10-8.32,7.35-17.81,15.71-27,22-5.51,3.77-12.08,5.62-17,10-15.07,13.4-30.81,26.73-46,40-3.3,2.88-8.71,3.1-12,6-4.48,4-7.51,10-12,14-3.29,2.9-8.7,3.11-12,6-.92.81-1.09,3.17-2,4-2.89,2.62-7.06,3.38-10,6-1.66,1.48-2.36,4.5-4,6-2.88,2.63-7.07,3.39-10,6s-5.2,7.54-8,10c-4.36,3.83-11.6,4.25-16,8-14.6,12.46-29.64,25.37-44,38-3.49,3.07-9.19,3.23-13,6l-6,8c-4.83,3.14-10.64,2.89-15,6-9.77,7-18.8,16.29-28,24-5.2,4.36-12.55,6.08-18,10-24.15,17.35-49.35,36.08-75,52-6.72,4.17-13.1,6.16-20,10-3.2,1.78-6.05,5.84-10,7h-11c-5,1.38-15.93,4.39-21,7-4,2-7.73,7.25-12,9-6.27,2.56-9.95,2.54-16,5-4.23,1.72-8,6.25-12,8l-14,2c-2.85,1.08-5.67,4.86-8,6l-12,2c-6.7,2.56-17.08,8.89-24,12-6,2.7-14.41.89-17,7C2594,1693.42,2594,1695.27,2594,1698Z"  fill-rule="evenodd"/>
  </g>
  <g class="g_to_interact" id="UnderSaal" style="isolation: isolate">
    <path d="M298,1740c34.09-.68,68,8.12,88,22,3.34,2.32,5.13,7.12,8,10,.08,7.69-1.44,11.65-2,18,6,.31,9.42,2.89,14,4l14-2c5.19,1.48,9.81,7.27,14,10,5.61,3.65,12.84,4.15,18,8,2.8,2.09,3.39,7,6,9,4.88,3.83,12,3.28,18,6,7.91,3.61,15.44,10,23,14,10.23,5.36,20.4,7.11,31,12,6.55,3,13.87,9.13,20,13,2.64,1.67,4.68.68,8,2,8.16,3.24,16.88,9.45,24,14,7.72,4.93,17.33,7.08,26,11,5.3,2.4,10.24,7.37,15,10,9.47,5.22,19.06,7,29,12,5,2.52,11.28,7.93,16,11,5.74,3.73,11.33,4,18,7s13.27,9.33,20,12c4.8,1.9,8.09,1.47,12,4,8.3,5.36,18.74,12.15,28,16h4l10,10c6.11,3.85,13.09,4.13,20,7s9.51,10.89,18,12v6h2c7.61-6,16.74,1.43,21,5,8.48,7.11,21.31,8.1,31,14,1,.62,10.55,6.42,11,7,1.94,2.54.19,4.17,3,6,6-4.72,18.13.3,24,3,4,1.84,7.76,6.28,12,8,8.89,3.6,16.08,5.41,24,10,2.1,1.22,4.71,4.87,7,6l13,2c8.63,3.12,16.22,9.89,24,13,11.6,4.65,20.7,7.28,32,12,2.71,1.13,5.25,5,8,6,6.88,2.55,10.53,1.72,16,5l6,6,12,2c7,4,14.26,11.87,22,15l8,1c2.34,1.15,5.18,4.86,8,6,5.59,2.25,10,1.71,16,4,4.37,1.67,9,6,13,8l9,2c10.42,5.26,20.83,15.7,32,20l8,1c3.58,1.45,5.52,4.67,10,6v-6c9.36.51,12.58,6,19,9,3.91,1.85,9.14-.42,14,1,4.23,1.24,6.66,5.31,10,7,6.42,3.25,14.48,3,21,6,15.89,7.26,33,17.64,50,24l10,2c1.66.7,4.31,3.45,6,4h10l7,8c4.51,2.72,9.92,1.34,15,4,3.62,1.9,5.24,8,9,10,7.67,4.15,15.26,4.06,23,8,2.07,1.05,4.8,4.86,7,6l9,2c7.12,3.2,14.75,9.07,22,12,3.35,1.35,5.12.3,8,2l6,6c5.89,2.56,14,.47,20,3,11.45,4.85,22.93,17,35,23l11,2c9.94,4.36,21.2,11.11,31,16l9,2c8.4,3.81,17.42,10.47,26,14h4c2.55,1.3,5.56,5.42,8,7,3.27,2.12,5.91,1.39,10,3,7.33,2.9,16,8.54,23,12l9,2c20.46,9.2,41.17,23.48,62,32,20.14,8.24,38.8,16.94,57,26l9,2c3,1.17,6.38,4.64,9,6,5.87,3.06,10.89,2.89,17,6,2.07,1.05,4.8,4.86,7,6l9,2c1.77.9,3.8,4.12,6,5,6.27,2.5,11.7,1.89,18,5,27.71,13.69,58.07,26.12,85,40,6.33,3.26,12.55,2.73,19,6,2.06,1,4.79,4.89,7,6l7,1c2.43.95,5.57,4,8,5,5.22,2.1,8.77,1.62,14,4,21.81,9.91,45.77,21.45,67,32l11,2c2.34,1.15,5.18,4.86,8,6,10.54,4.27,19.25,6.57,30,11,2.72,1.12,5.25,5,8,6h6c2.28.81,5.05,4,7,5l9,2c33,15,64.75,33,100,47,8.3,3.29,17.08,11,25,15l11,2c13.55,5.94,26.21,15.41,39,22l9,2c7.79,3.54,15.83,10.22,23,14l9,2c17.5,8.86,37.24,19.19,55,28l11,2c5,1.92,9.21,7.14,14,9l8,1c5.3,2.33,10.23,7.49,15,10,7.17,3.78,14.25,4.11,21,8,1.82,1.05,3.7,4.18,6,5h6c9.34,3.29,20.18,10.81,29,15,6.39,3,16.64,2.85,23,6,8.93,4.42,20.05,11.56,29,16l17,4c4.91,2.19,9.9,3.61,16,6,5.71,2.24,11.55,7.42,17,10l13,2c5.23,2,10.78,7,16,9,15.29,5.83,30.65,7.14,46,13,2.95,1.13,6.39,4.71,9,6,6.77,3.36,13.74,2.51,20,6l5,5c6.79,2.92,12.75,1.25,19,4,4.05,1.78,8.59,6.54,13,8l11,1c4.46,2.25,9.27,7.69,14,10l11,1c1.66.56,4.34,3.42,6,4h6c3.38,1.26,6.5,5.6,10,7,6.85,2.73,10.5,2.36,18,5,6.15,2.16,13.9,7.68,20,10,9.47,3.6,16.92,4.41,26,8,3.26,1.29,6.54,4.9,10,6h6c8.88,3.12,19.16,11.07,28,14h8c2.28.77,5.07,4,7,5,4.9,2.52,9.64,1.9,15,4,14.75,5.77,31.26,14.84,45,22,11.6,6,22.91,8.52,35,14,4.82,2.18,10.87,7.3,16,9h8c3.16,1.14,5.33,5.32,8,7,4.24,2.65,11.52,1.19,16,4,2.68,1.68,3.6,6.15,6,8,4.84,3.73,9.43,2.52,16,5,3.76,1.42,6.24,6.59,10,8h6c2.1.79,4.17,4,6,5,2.34,1.33,4.95-.08,8,1,6.15,2.17,12.5,8.26,18,11l14,2c7.75,3.77,17.21,10.12,25,14l9,2c6.29,2.87,12.31,10.07,18,13,4.09,2.1,8.52.71,12,3,6.23,4.1,14.29,10.72,21,14l17,2,3,4c4.24,3,7.67,2.48,13,5,1.84.87,3.95,4.18,6,5l12,2c1.75.86,3.81,4.16,6,5,5.05,1.94,9.33.66,14,3,2.34,1.17,5.15,4.89,8,6,5.13,2,9.59,1.39,14,4,9.09,5.39,11.23,19.12,19,26,4.31,3.82,9.34,3.14,15,6,8.53,4.31,17.19,13.7,21,23,11.19-.13,18.51,4.43,27,8a56.51,56.51,0,0,1,0,13c-6.87,4.54-27.91,17.49-40,15-1.55-.32-4.47-3.51-6-4h-17c-2.17-.76-3.83-4.24-6-5l-19-1c-3.79.88-34.45,2.28-42,0-3.8-1.15-6-5.51-9-7l-10-1c-5.23-1.45-11.44-4.62-17-6h-41c-10.25-2.84-20.52-9.06-31-12-12.59-3.53-24.66-2-36-7-3.63-1.6-7.91-5.76-12-7-6.79-2.06-12,.43-19-2-1.59-.55-3.41-3.44-5-4h-7c-6.19-2.22-14.66-8-21-10-10.15-3.16-22.53-2.58-26-12-1.89-2-2.57-4.43-3-8-9.16.14-14.45-2.34-21-4h-10c-2.72-1-5.28-5-8-6l-10-1c-6-3.51-9.26-12.3-16-15-5.87-2.35-11.3,1.42-17,0-3.95-1-7.81-4.8-11-6-5.26-2-9.42.07-15-2-7.82-2.9-18.39-14.33-25-19-4.7-3.32-13.44-.88-19-4-10-5.6-17.42-16.73-28-22-4.53-2.26-11.51.91-17-1-3.37-1.17-6.51-5.68-10-7l-16-1c-2.22-.78-3.39-3.66-5-5-3.38-2.82-8.7-3.09-12-6-4.53-4-7.68-10.91-13-14-5-2.88-13.84,1.16-20-1-4.37-1.53-7.43-7.26-12-9l-18-2c-6.38-3.23-10.46-12.51-18-15-5.16-1.7-12,1.34-16-1-4.39-2.55-7-9.14-12-11-6.22-2.3-11.43.21-18-2-8-2.67-16.28-12.91-25-17l-13-1c-6.46-2.14-10.05-9.88-16-12l-12-1c-11.94-5.09-23.61-12.64-35-18l-13-1c-2.74-1-5.3-4.91-8-6-15-6.07-30.68-9-44-17l-6-6-12-2c-2.79-1.62-4.87-5.58-8-7-3.94-1.79-7.22-1.1-11-3l-3-3-10-1c-6.73-3.91-12.18-12.45-19-16-6.63-3.45-13.26-.62-22-3-4.26-1.16-10-5-13-6h-11c-4.5-1.59-8.26-7.15-13-9-13.91-5.44-27.55-6.95-40-14-3.85-2.18-6.85-7.89-11-10l-11-2c-3-1.13-6.39-4.66-9-6l-9-2c-5.28-2.11-8.72-7.89-14-10-29.9-12-54.87-24.22-84-36-6.77-2.74-8.94-10.83-15-14-5-2.6-9.81-1.63-15-4-8.76-4-18-11.61-27-16-8.65-4.22-18-3.46-27-8-2.25-1.13-4.75-4.86-7-6l-17-4c-9-4-18.49-9.85-27-14-12.27-6-30-3.65-43-9-3.48-1.43-3.85-7.17-7-9l-6-1c-1.58-.72-3.38-3.41-5-4-7.12-2.58-12.76-1.21-19-4-2-.92-4.13-4.07-6-5l-12-2-5-5h-7c-7.15-2.09-16.51-4.68-24-8-1.63-.73-3.36-3.28-5-4-3.77-1.67-6.77-.4-11-2-1.59-.6-3.4-3.43-5-4l-10-1c-5.83-2.16-9.53-7.22-16-9-11-3-19.86,1.07-31-2-3.3-.91-10.77-2.91-14-5l-8-8-22-3c-3.67-1.12-7.35-4.81-11-6-5.37-1.74-9.37,0-15-2-3.83-1.38-7.17-6.63-11-8-5.93-2.12-10.37-.27-15-3-2.78-1.64-5.84-5.91-9-7h-13c-2.7-1-4.33-5-7-6-4.77-1.86-8.21-.19-13-2-1.6-.6-3.4-3.4-5-4-9.65-3.62-19.08-2.5-29-6-1.58-.56-3.41-3.46-5-4h-15c-2.21-.64-4.79-3.36-7-4-7.19-2.09-12.25.39-19-2-8.36-3-12.4-11-23-12-1.23-18.4-21.81-11.95-35-18l-11-10h-11c-2.22-.65-4.79-3.29-7-4-7.06-2.28-15-1.27-21-5-5.29-3.32-10.44-10.86-17-13-4.12-1.34-7.67,1.62-10,2-4.34.71-10.64-3.1-14-4h-13c-5.18-1.88-6.3-10.05-11-12-7-2.89-13.17.18-21-2-4-1.11-18.46-6.7-22-9l-7-7c-8-3.13-16.79-1.49-24-5-2.46-1.19-10.58-4.43-13-6l-7-7c-8-3.13-18-.93-25-5l-14-14c-5.59-2.82-14.67-.51-20-3-5-2.31-5.76-10.11-11-12-5.7-2.06-13.26,1.41-18-1-6.39-3.24-8.41-12.69-15-16-4.75-2.39-12.3,1.06-18-1-3.57-1.29-5.37-6.92-9-8-2-.61-5.71,2.45-9,1l-3-4c-5-3.15-10.9-3.16-14-8-1.52-2.36-.66-4.66-3-6-3.74-2.14-9.33.63-14-1-1.34-.47-8.9-4.69-10-6-1.58-1.88-1.07-5.53-3-7-5.45-4.16-16.19-2.42-22-6-4-2.49-2.67-9.05-6-12-6.22-5.51-22-16-30-19-4.9-1.85-9.09-.47-13-3-5.43-3.51-10-11-16-14-4.31-2.16-10.58.45-16-1-2.19-.59-8.77-.88-12-2-1.6-.56-3.41-3.4-5-4-5.5-2.07-11-.44-16-3-4.3-2.2-6.13-9-10-11l-7-1c-7.41-4.63-15.13-12.6-23-17l-5-1c-2.16-1.3-4.24-4.07-7-5l-7-1-3-4-7-2-5-6c-4.73-3.09-10.27-2.91-15-6l-5-6c-4.74-3.09-10.23-2.94-15-6l-5-5-5-1-7-8c-5.4-3.4-11.87-2.64-17-6l-10-10c-8.46-4.7-16.67-6.65-24-12l-11-12c-3.91-2.45-9.49-1.52-13-4l-11-12-9-2c-5.61-3.55-7.47-12.41-13-16l-13-4-7-10c-3.87-2.56-8.14-1.11-13-3-7.06-2.75-10.61-11.05-23-7-.56-17.62-14.55-17.36-26-24-4.62-2.68-10.11-7.57-15-10l-9-2c-4.49-2.92-6.93-10.4-11-14-3.59-3.18-8.79-3.33-13-6l-8-8-10-2-7-8c-3.74-2.19-7.52-1.75-11-4-10.07-6.53-18.31-14.32-27-22-4.31-3.81-9.4-3.07-15-6-3.61-1.89-6-7.36-9-10-3.62-3.17-10.38-2.83-14-6-2.36-2.07-3.64-5.92-6-8-3.28-2.89-8.71-3.11-12-6-1.64-1.45-2.35-4.56-4-6-5.93-5.18-16.39-5.67-23-10l-10-10c-21.09-14.42-38.08-31.55-56-49v-6c-23.14-1.52-39.77-20.82-53-33-4.94-4.54-11-7.46-16-12-1.64-1.5-2.34-4.54-4-6-5.82-5.13-14.33-6.8-20-12-3.31-3-4.9-7.73-8-11-4.5-4.75-10.6-8.19-15-13-.67-1.33-1.33-2.67-2-4-4.11-3.5-9.48-6-13-10C302.38,1769.72,297.92,1750.25,298,1740Z"  fill-rule="evenodd"/>
  </g>
  <g class="g_to_interact" id="KantSaal" style="isolation: isolate">
    <path d="M3386,2838c7.87.48,11.67,4.4,18,6s11.84-2.91,16-2c6.42,1.4,14.74,10.46,20,14,5.88,4,13.67,6.28,19,11,5.59,4.94,8.53,12.94,14,18,4.5,4.16,10.87,7.63,14,13,2.16,3.7.82,7.9,3,12,2.85,5.34,13.66,6.36,17,12s3.47,34.85,0,42c-1.13,2.33-4.89,5.17-6,8-4.2,10.73-6.51,18.59-12,28-2.54,4.35-8.27,7.82-11,12-2.27,3.47-.64,10.29-3,14-2.05,3.22-7.46,4.19-10,7-2.33,2.58-2.09,5.85-4,9-1.17,1.93-4.53,3.29-6,5-3.83,4.48-4.81,9.73-8,15-1.17,1.93-4.54,3.29-6,5-4.32,5.05-6.2,11.44-10,17-2.3,3.35-6.72,6.56-9,10-3.28,4.95-3.82,10.83-7,16-2.37,3.86-7.41,7.54-9,12-1.08,3,.47,5.73-1,8-3.1,4.78-11,5.54-14,11-3.5,6.33-2.17,15-8,19-3.54,2.77-17.92,3.38-23,1-12.69-5.95-24.15-19.65-36-28-8.84-6.23-15.48-15.77-24-22a286.59,286.59,0,0,0-29-18c-12.1-6.67-26.39-7.71-39-14-9.6-4.78-19.31-14-30-17-5.51-1.57-8.2,3.54-14,1l-8-8c-6.91-4.62-16.54-4.29-23-9-2.16-1.58-2.35-4.82-4-7-2-2.61-7.86-4.81-11-6-11.16-4.24-21.73-9.34-32-13h-6c-3.74-1.41-6.44-6.14-10-8-6.42-3.35-10.57-3.23-18-6-2.73-1-5.27-5-8-6-3-1.14-5.69.36-8-1-2.73-1.61-4.83-5.79-8-7h-6c-3.38-1.19-10.8-5.21-13-8-1.78-2.26-2.16-4.89-5-6l-10-1c-4.58-1.77-7.63-7.39-12-9h-8c-11.33-3.83-23.25-12.7-34-17-6.75-2.7-11.56-2.73-18-6l-2-3c-7.41-4.69-15.65-5.21-24-9-5.6-2.54-12.18-7.7-18-10-5.59-2.21-10.66-1.31-16-4-1.77-.89-3.76-4.22-6-5h-8c-8.72-2.95-19.35-10.89-28-14l-10-1c-1.75-.86-3.83-4.12-6-5-21.81-8.82-42.28-14.31-64-23-2.82-1.13-5.51-4.85-8-6-3.5-1.62-5.64.87-8,0-1.56-.58-4-4.3-6-5l-12-1c-5.72-2.81-13.58-8.45-20-11-6.27-2.49-11.71-1.88-18-5-2.34-1.16-5.15-4.9-8-6l-10-1-5-5c-6.62-3.7-13.84-2.45-21-6-2.34-1.16-5.16-4.9-8-6-6.32-2.45-12-1.36-18-4-5.39-2.39-12.61-7.35-18-9h-10c-5.24-1.75-10.83-7-16-9l-14-2c-5.39-2.37-10.51-7.82-16-10-7.75-3.08-15.42-5.53-22-8l-12-2c-8.72-4.32-19.93-11.44-29-16-7.52-3.78-14.82-2.38-23-6-3.35-1.48-6.53-5.6-10-7h-4c-4.5-1.77-9.46-6.38-14-8h-6c-6.29-2.2-13-8.14-19-11l-19-4-3-4c-5.14-3.64-12.57-7.33-18-10-7.46-3.66-15.24-3.6-22-8s-9.37-16.71-19-18c-4.27,5.49-12,3.12-18,0-4-2.09-9.13-6-13-8l-9-2c-3.27-1.74-6.09-6.38-10-8-6.8-2.82-12-5.57-18-8h-4c-11.08-5.67-22.05-15.15-34-20-5.3-2.15-10.59-1.3-16-4-7.52-3.76-16.08-11.8-24-15-6.12-2.47-10-2.24-16-5-6.66-3.07-14.65-9.26-22-12-3.47-1.29-6.74,1.41-9,0-1.43-.89-2.16-4.94-4-6-4.14-2.38-8.55-1.7-13-4-6.83-3.53-14.79-9.74-22-13-8.35-3.77-15.74-4.67-24-9-3.23-1.69-5.76-6.33-9-8l-19-4c-10-4.44-21.49-11.24-31-16l-11-2c-4.21-2.09-9.18-7.09-14-9-6.16-2.44-10-2.27-16-5-6.22-2.82-13.73-8.59-20-11l-8-1c-9-4.35-20.58-11.38-30-15l-8-1c-17.53-8.91-37.16-19.43-55-28-6.83-3.28-12.59-2.67-19-6-4.14-2.15-9.45-7.25-14-9-6.59-2.53-10.42-1.45-17-4-2.07-.81-4.16-4.07-6-5l-8-1c-4.83-1.86-11.66-6.71-16-9l-9-2c-2.07-1.05-4.8-4.84-7-6-5.86-3.08-10.9-2.89-17-6-2.35-1.2-5.14-4.87-8-6-5.21-2.06-9.37-1.6-14-4s-9.37-7.13-14-9c-10.69-4.31-19.49-6.21-30-11-5.85-2.67-12.32-8.68-18-11l-8-1c-2.34-1.17-5.18-4.85-8-6-8.79-3.59-15.94-5.57-24-10-1.88-1-3.91-4.05-6-5-15.57-7.07-29.44-11-45-18-4.25-1.92-8-6.91-12-9l-6-1c-4-1.82-9-6.18-13-8-17.65-8-34.51-15.21-51-23l-11-2c-9.13-4.62-20.21-12.25-30-16l-9-1-7-7-9-2-6-6c-5.41-3-11.12-5.44-16-8-16.49-8.65-36.67-13.06-53-22-3.73-2-5.25-8-9-10l-11-2c-7.9-3.72-16.6-9.68-24-13l-18-5c-3.74-1.84-7.41-6-11-8-3.83-2.09-7.24-1.81-11-4-2.63-1.53-5-5.86-8-7-7.36-2.78-14.38-1.08-21-4-8.8-3.88-20.55-9.76-29-13-3.88-1.49-6.21-.33-10-2-5.52-2.44-10.43-6.34-18-7v6h-2c-5.43-5.29-13.08-4.8-20-9-14.42-8.75-34-21.89-50-28l-12-2c-4.11-1.79-9.16-6.08-13-8-8.48-4.23-15.58-5-23-10-2.58-1.72-4.79-5.86-8-7h-8c-6.16-2.2-11.68-9.75-18-12a606.83,606.83,0,0,1-72-31c-6.75-3.42-14.64-4.64-22-8-17.11-7.82-35.44-25.46-58-21-1.41-13.08-27.28-17.57-38-23-7.52-3.81-10.55-11.93-22-13a10.43,10.43,0,0,1-6,4v-6h-4c-8.69-12.34-21.56-11.16-34-19-2.15-1.35-3.17-4.39-5-6-8.53-7.48-24.44-11.26-35-17-3.26-1.77-6.31-5.54-10-7-9.84-3.89-16.66-7.8-25-12-2.67-1.34-5.62-.3-8-2-2.73-2-4.83-6.24-8-8-10.31-5.7-20.57-8.51-31-14-3.2-1.68-6.54-5.77-10-7l-9-1a295,295,0,0,0-28-16c-2.78-1.37-5.49-.52-8-2-32.2-19-69.43-33.85-101-54-6.85-4.37-15.37-4.7-22-9-9.19-6-19.52-13.88-29-19s-32.69-7.35-40-13c3.61-5.33,3.08-17,1-22-10.66-3.85-19.08-7.43-30-12-2.7-1.13-5.25-5-8-6H344c-5-1.3-13.65-3.43-18-5-10.19-3.68-20.54,1.17-24-9-2.67-7.86,4.83-15.12,7-19,7.85-14.06,13.7-31.23,21-45,2.49-4.7,2.39-8.85,5-14,2.39-4.71,8.07-9.56,11-14s3.92-9.52,7-14,8.29-7.3,12-11c6.93-6.91,12.69-15.53,20-22,5.94-5.26,14.2-7.75,21-12,5.65-3.53,11.23-9.44,18-12,11.11-4.19,27.59,2.51,40-1,3.93-1.11,7.73-4.85,12-6,15.89-4.28,38.1,2.4,48,5h15l5,6c3.59,1.89,15,2.91,17,2a218.7,218.7,0,0,0,25,12c5.71,2.2,10.43,1.5,16,4,5.26,2.36,10.23,7.55,15,10l11,2c5.36,2,11.1,6.06,16,8,7.32,2.89,13,2.8,20,6,10.9,5,24.36,11.61,36,16l8,1c3.39,1.37,6.48,5.55,10,7,6.43,2.66,11.71,2.7,18,6,3.27,1.72,6.06,6.45,10,8,7.67,3,12.86,2.78,20,6,42.29,19.09,79.91,45.37,121,66,8.43,4.23,16,4.08,25,8,7.48,3.27,18,8.56,26,11h8c3.34.87,8.66,3.12,12,4h12c1.65.54,4.35,3.45,6,4l22,1c2.78.92,14.2,6,17,8,4.42,3.12,6.94,9.42,12,12l9,1c1.69.59,4.32,3.36,6,4,5.44,2.09,10.68.65,16,3,4.91,2.17,10.87,7,16,9,7.44,2.87,13.54,2.77,20,6,6,3,12,8.69,18,11l14,2c3.11,1.81,5.74,6.27,9,8l9,2c7.58,3.42,16,10.15,24,13,3,1.08,5.66-.33,8,1,9.83,5.58,36.43,22.54,49,17,0,3.16-1.69,1.34,1,3,5.35,4.43,13,5.22,20,8,5.68,2.26,11.76,7.38,17,10l11,2c7.21,3,15.79,10.26,23,14l9,2c2.35,1.2,5.13,4.91,8,6l10,1c3.18,1.19,6.12,5.48,9,7l9,2c4.53,2,9.6,7.46,14,9l16,1c10.33,5.07,22.66,12.53,34,17,6.3,2.48,14,3.15,20,6,7.45,3.55,14.86,11.75,21,17,5.94,5.08,14,5.87,21,10,2.75,1.62,5.4,5.3,8,7,8.24,5.39,16.73,6.31,26,11,6.77,3.42,14.44,10.12,22,13l8,1c3,1.12,6.39,4.69,9,6l7,1c7.43,3.88,10.4,14.18,21,15,6.73-4.12,17.9,5.21,23,7,9.62,3.37,14.16,6.72,22,10h4l8,9,12,2c7.84,3.43,12.22,9.26,18,13l6,1c4.17,2.15,9.1,7.31,14,9,6.19,2.14,10.44.82,16,3,6.07,2.38,10.39,8.73,16,11l12,2c6,2.45,11.88,9.76,18,12l14,2c6.85,2.77,14,10,21,13l8,1,5,5,6,1c6,2.4,13.67,7.77,20,10h6c4.58,2,9.18,8.23,14,10l10,1,8,8,14,3,4,4h4c3.38,1.46,6.45,5.59,10,7,3.91,1.55,6.1.44,10,2s6.61,6,10,8c5.47,3.28,14.41,4.92,20,7,22.86,8.5,47.34,14.53,70,24,7.52,3.14,13.79,11.25,21,15l9,2c3.34,1.69,7.38,6.19,11,8,4.35,2.18,8.89,1.64,13,4,2.11,1.21,4.73,4.82,7,6l9,2c4.81,2.18,10.87,7.32,16,9h10l4,5a115.39,115.39,0,0,0,11,6c5.9,2.94,10.92,2.6,17,5,5.44,2.14,12.26,7.16,18,9h9l5,6c5.77,3.67,15.91,3,22,6,1.75.86,3.78,4.22,6,5l10,1c6.8,3,12.82,9.34,20,12l12,2c1.75.86,3.78,4.21,6,5,3.05,1.09,5.66-.33,8,1,5.95,3.37,13.79,10.69,20,13,16.44,6.11,32.48,7.52,48,14,3.19,1.33,6.08,5.44,9,7,5.82,3.09,11,2.83,17,6,2.94,1.55,5.9,6.29,9,8,5.15,2.84,9,2.67,15,5,3.66,1.43,7.59,5.3,11,7,8,4,15.34-.34,25,3s20.22,11.29,30,15c13.6,5.15,25.23,6.16,38,12,3.27,1.5,6.52,5.83,10,7,5.95,2,10.71,0,16,2,9.68,3.69,15.05,13.59,24,17,7.35,2.8,17.09.22,24,3,5.21,2.1,10.39,7.87,16,10l12,2c6.4,2.44,14.95,7.89,21,11,4.93,2.53,10.64,2.05,15,5,6.75,4.56,16.2,17.12,24,20l22,3c7.76,2.92,16.81,9.1,26,11,3.44.71,5.92-1.71,8-2,2.37-.33,9.6,1.72,12,3s3.23,4.93,5,7c1.94,2.27,5.77,2.95,8,5,5.37,4.92,9.3,12.47,16,16,4.81,2.53,9,1.32,15,3,4.38,1.22,8.3,4.6,12,6,5.46,2.07,10.67.67,16,3,6.47,2.83,11.29,8.85,17,12,7,3.89,13.26,4.46,21,8,3.76,1.72,7.44,6.06,11,8,6.46,3.5,12.48,4.6,19,8,8,4.19,16.94,10.14,25,14l11,2c5.07,2,7.87,7.2,12,10,9.08,6.16,20.58,8.09,30,14,5.33,3.34,9.62,9.57,16,12,9.9,3.77,25.09-.16,36,4,3.52,1.34,6.62,5.75,10,7h6c8.22,2.89,17.44,9.23,25,13l9,2c2.06,1,4.79,4.89,7,6l9,2c7.61,4.65,6.85,17.6,15,22s16.19,5.33,25,9c2.11.88,4.14,3.92,6,5,5.17,3,10.28,2.74,16,5,4.52,1.78,9.46,6.27,14,8l8,1c3.76,1.68,7.42,6.15,11,8,4.2,2.18,9.11,1.64,13,4,1.82,1.1,3.9,4.22,6,5h6c4.52,1.6,9.47,6.42,14,8h6c3.3,1.24,6.74,5.28,10,7,10.38,5.48,23.83,7.57,34,14l6,6c5.32,3.34,11.57,2.54,18,5,2.28.87,5,4,7,5,5.7,2.93,10.79,2.58,17,5,12.67,4.94,25.06,15,38,20,5.16,2,9,1.05,14,3,3.13,1.23,6.87,4.77,10,6,6.44,2.53,12.16,2.61,18,6,1.85,1.07,3.89,4.15,6,5,5.07,2,9.18.82,14,3,2.66,1.2,6.4,4.65,9,6C3372.31,2828.8,3384.86,2827.94,3386,2838Z"  fill-rule="evenodd"/>
  </g>
  <g class="g_to_interact" id="Logo" style="isolation: isolate">
    <path d="M3650,2246v58c-2.87,11.94-4.49,32.83-2,46-5.8,1.64-6.27,4.67-14,5-12.13-7.88-30,1.95-42-1-15.51-3.8-42.57-3.29-59,0-3.95.79-6.65-1.41-9-2-11-2.77-37.78-.08-46,2h-16c-4.84.48-11.09,3.71-18,2a54.08,54.08,0,0,0-14-2c-21.7,0-38.08,3.15-59,2-8.08-.44-21.54-3.2-31-1-13.84,3.22-39,4.79-54,1-14.51-3.66-27.62,3.12-40,0-15.87-4-37.58,1.8-48,4-5.34,1.13-13.73-2.92-18-4-17.54-4.44-41.54,3.73-58,1-2.08-.34-37-3.82-40-3-2.62.72-6.17,4.74-10,4-1.53-.29-4.5-3.43-6-4-5.48-2.07-13.07-2.75-18-4-11.68-3-21.74,1.09-34-2-17.85-4.5-38.62-3.94-56-8l-12,1c-9.64-1.65-22.09-4.5-32-7l-44-2c-23.22-5.32-50.25-6.49-72-12h-18c-7.53-1.93-20.75-4.66-28-7l-23-2c-9.9-2.51-22.79-4.5-33-7l-16-1c-7.49-2.42-17.69-5.86-25-8-8.25-2.42-16-3.21-23-5h-12c-3-.79-7-3.21-10-4h-12c-7.66-2.53-18.23-8-26-10h-14c-3.37-1.19-6.5-5.66-10-7l-12-1c-8.53-2.24-19.81-5.82-28-8h-8c-10.12-2.66-17.34-8.27-28-11-9.46-2.42-19.49,1.05-28-2-13.12-4.7-26.72-12.64-40-17h-12c-5.55-1.49-9.29-6.39-14-8-7-2.39-12.08-.32-18-3-7-3.16-16.25-8.33-24-11l-12-2c-2.11-.85-4.16-3.88-6-5-4.54-2.76-13.48-5.6-18-7-6.31-2-11.53.33-18-2-5.71-2.06-8.77-9.28-13-13-5-4.38-22.52-10.32-31-11-.33-2-.67-4-1-6-10.23.28-27.39-8.81-31-14-1.64-2.3-2.36-6.89-3-10-16.81-8-36-16.66-51-27-5.13-3.53-8.53-9.76-13-14l-8-4-5-7c-4-2.36-8.51-2.14-12-5-3.81-3.12-3.53-10.12-8-13-3.81-2.46-13.36-3.87-16-7-.33-2.33-.67-4.67-1-7-2.19-3.61-9.23-5.66-12-9-.33-1.67-.67-3.33-1-5-2.91-3.8-9.7-5.4-13-9-4.79-5.22-6.24-11.53-10-18l-8-8c-8.28-11.11-19.84-25.8-23-41-3.1-14.88,2-54.32,8-70,2.81-7.4,9.48-10.33,10-20h6v-4c9.43-6.28,9.55-17.68,16-27,2-2.9,4.85-1,8-3,1.42-.89.84-3.87,2-5,4.07-3.93,10.59-3.22,13-9,.8-1.18.77-1.68,1-4,2.33-.2,2.83-.19,4-1,8.48-2.67,14.41-12.14,22-16,8.16-4.16,15.15-4.53,24-8,8.4-3.29,19.32-10.17,28-13h10c2.37-.69,5.33-3.34,8-4l6,1c3.56-.9,7.32-5.77,12-7h8c9.12-2.39,21.51-5.65,32-8,6.34-1.42,7.67,3.46,14,2,7.12-1.64,14.34-6.08,22-8,5.34-1.34,19.42-2.72,25-2,1.2.15,3.57,2,6,1l5-5h20c19.82-4.84,46.41-4.84,66-10,12.71-3.35,26.76-.74,40-4,15.2-3.74,18.89-12.69,38-8,9.63,2.36,18.95-2.48,23,5a10.75,10.75,0,0,1,0,9c-1.24,2.19-25,25.28-27,26-4.8,1.7-8.7-.6-12,2-11.17,8.81-20.36,19.51-29,31l-11,9c-3,4.34-3.56,9.26-7,13-2.53,2.75-6.13,2.89-9,5-1.2.88-16.54,24.6-17,26q.49,6,1,12c-1.33,6-4.52,21.72-1,29,.92,1.9,4.3,4.74,5,7,1.06,3.41-1,4,0,6,1.19.78,4.81,1.2,6,2,2.88,3.13,2.65,8.17,5,12,3,4.9,8.21,8.83,12,13,2.63,2.89,3.38,7.06,6,10,6.1,6.85,14.35,11.66,21,18,3,2.9,4.17,6.83,7,10,3.25,3.64,8.57,5.51,12,9l3,5c5.35,4.11,12.66,5.12,18,9,4,2.88,7.58,9.4,11,12l7,1c1.59.63,3.67,3.32,5,4l11,3c3.42,1.79,4.28,5.9,7,8,4.64,3.58,11.13,2.75,17,5,6.15,2.36,13.89,7.55,20,10l6,1,3,4,9,1c3.67,1.22,8.49,4.87,12,6h12c3.55,1.4,6,6.61,9,8h9c1.28.5,4.49,3.42,6,4,3.88,1.48,6.23.31,10,2,30.33,13.57,66.5,23.06,98,35l8,1c11.49,4.18,26.45,9.38,38,13l10,1c18.81,8.17,42.35,14.21,62,21l28,5c2.4.91,5.58,4.16,8,5,11.91,4.15,24.46,2.64,36,7,2.42.92,5.58,4.07,8,5l14,2c1.66.57,4.34,3.45,6,4l16,1,24,8,12,1c2.17.73,5.15,4.26,7,5,3.4,1.35,6.75-1.33,9-1,2.67.39,5.68,3.32,8,4h12c5.61,1.41,13.45,1.73,20,4,3.79,1.31,8.18,5.8,12,7l16-1c12.45,3.12,25.78,8.24,37,12,5.43,1.82,7-3.39,13-2,5.66,1.31,9.93,5.15,14,7,3.65,1.66,5.21-.41,8,0,7.42,1.08,17.1,3.36,24,5l14-2c1.62.44,4.39,3.47,6,4h16c17.21,4.26,41.15,1.72,58,6h16c5.16,1.66,10.19,4.14,16,5,5.3.79,15.05-2.71,22-1,4.12,1,14.1,3,18,4s4.6-1.51,6-2h30c.8.25,3.2,2.79,4,3,3.42.91,4.45-1.56,6-2,3.42-1,5.68,1.3,8,1,3.73-.48,8.88-2.15,15-2,5.31.13,8.66,3.71,13,3,5-.81,27.28-6.81,36-3l3,4c2.93,1.19,14.37-3,21-2,2.74.4,3.11,2.41,5,3l11-1c1.27.28,4.07,2.21,6,2,19.4-2.09,36.8-4,61-4h19c5.1,1.34,12.09,4.89,18,6,5.66,1.07,14.82-.45,22,2C3639,2243.69,3641.44,2246,3650,2246Z"  fill-rule="evenodd"/>
  </g>
  <g class="g_to_interact" id="Logo_bagpaa" style="isolation: isolate">
    <path d="M3618,1574c14.25,0,24.05,7.47,31,15,1.84,2,2.59,5.7,5,7,5.79,3.11,16.72,4.9,21,9,3.81,3.65,5.15,9.3,10,12,5.73,3.19,13.3,3.77,18,8,3.17,2.85,3.3,7.56,6,11,1.67,2.12,4.55,1.47,7,3,4.78,3,5.16,10.1,9,14,1.34,1.36,3.67,1.59,5,3a39.34,39.34,0,0,1,8-1c2.64,4.1,6.09,13.13,10,16l8,2c3.08,2,3.5,7.31,6,10,8.17,8.79,20.44,14.22,25,27,2.77,7.76,6,48.35,3,60-1.47,5.71-6.43,9.4-8,14v16c-1.29,5.07-2.75,12.07-5,18-2.41,6.37-8.91,14.07-11,20v8c-2.59,7.75-9.46,15.68-12,24-1.9,6.21-.35,10.74-3,16-2.12,4.2-7.54,8-10,12-2.94,4.79-.85,9.57-3,16-1.61,4.82-6.71,8-9,12q-1,6-2,12c-1.48,3.92-5.78,7.89-7,12-2.49,8.39.24,15-2,24-.91,3.66-3.1,10.34-4,14v28c-5.57,17.3-7.54,39-14,56a436.78,436.78,0,0,1-19,42c-5.84,11.49-13.41,11-17,28-6.33.48-7.18,2.67-14,3-3.59-4.75-8.81-7.85-13-12-.94-.93-1-3.14-2-4-4-3.53-10.09-4.44-14-8-4.9-4.46-9.21-10.43-15-14-8.12-5-16.18-6.75-24-12-1.93-1.3-3.23-4.5-5-6-2.56-2.17-6.08-2.13-9-4-5.84-3.74-11.82-9.48-17-14s-13.28-6.07-19-10c-5-3.43-7.4-10.44-12-14-2.65-2-6.54-1.83-9-4-10.79-9.52-24-27-30-41-3.93-9.2-.38-18.77-3-30-3-12.92.95-27.06,5-38,2.87-7.77,2.08-14.37,5-22,.93-2.42,4.08-5.58,5-8,2.09-5.5.78-10.57,3-16,1.69-4.13,7-7.11,9-11q1-5.51,2-11c1.57-4,6-7.43,8-11,3.2-5.82,2.93-12.7,6-19,2.74-5.62,8.78-10.53,11-16,.33-2.67.67-5.33,1-8,1.18-2.65,4.64-6.41,6-9s.5-4.4,2-7c3.12-5.39,8.59-11.7,11-18,.33-2.67.67-5.33,1-8,2.06-4.64,7.18-9.34,9-14s.79-8.14,3-12c1.2-2.1,4.86-4.72,6-7q1-5.51,2-11c3.56-8.15,10.78-16.11,14-24,2.82-6.89,2.86-13,6-20,1.57-3.53,5.77-8.29,7-12v-8c1.51-4.53,6.45-9.49,8-14C3615.69,1625.62,3617.82,1603.59,3618,1574Z" fill-rule="evenodd"/>
  </g>
</svg>
